<mxfile host="app.diagrams.net" modified="2024-06-24T03:38:09.848Z" agent="Mozilla/5.0 (Windows NT 10.0; Win64; x64) AppleWebKit/537.36 (KHTML, like Gecko) Chrome/126.0.0.0 Safari/537.36" etag="NBUKxg1iRgi8PJd1GPT0" version="24.6.2" type="github">
  <diagram name="第 1 页" id="oHb2VpvvcyrV9PNVXMH5">
    <mxGraphModel dx="265" dy="784" grid="0" gridSize="10" guides="1" tooltips="1" connect="1" arrows="1" fold="1" page="1" pageScale="1" pageWidth="1169" pageHeight="827" math="0" shadow="0">
      <root>
        <mxCell id="0" />
        <mxCell id="1" parent="0" />
        <mxCell id="YOt-EDq2CFGh9Q1SYODQ-2" value="&lt;font style=&quot;font-size: 18px;&quot; face=&quot;Times New Roman&quot;&gt;&amp;nbsp;User Query&lt;/font&gt;" style="rounded=1;whiteSpace=wrap;html=1;rotation=0;fillColor=#dae8fc;strokeColor=#6c8ebf;flipV=0;direction=south;arcSize=30;flipH=0;" vertex="1" parent="1">
          <mxGeometry x="1199" y="107" width="40" height="267.75" as="geometry" />
        </mxCell>
        <mxCell id="YOt-EDq2CFGh9Q1SYODQ-3" value="" style="rounded=1;whiteSpace=wrap;html=1;dashed=1;fillColor=#dae8fc;strokeColor=#6c8ebf;movable=1;resizable=1;rotatable=1;deletable=1;editable=1;locked=0;connectable=1;glass=0;shadow=0;arcSize=9;" vertex="1" parent="1">
          <mxGeometry x="1294" y="100" width="672" height="274" as="geometry" />
        </mxCell>
        <mxCell id="YOt-EDq2CFGh9Q1SYODQ-4" value="&lt;span id=&quot;docs-internal-guid-20cc6918-7fff-7577-12aa-bc1fb561c2a0&quot;&gt;&lt;p style=&quot;line-height:1.2;margin-top:0pt;margin-bottom:0pt;&quot; dir=&quot;ltr&quot;&gt;&lt;br&gt;&lt;/p&gt;&lt;/span&gt;" style="rounded=1;whiteSpace=wrap;html=1;movable=1;resizable=1;rotatable=1;deletable=1;editable=1;locked=0;connectable=1;" vertex="1" parent="1">
          <mxGeometry x="1370" y="241" width="224" height="117.01" as="geometry" />
        </mxCell>
        <mxCell id="YOt-EDq2CFGh9Q1SYODQ-5" value="&lt;span style=&quot;font-family: &amp;quot;Times New Roman&amp;quot;; font-size: 18px;&quot;&gt;ChatGLM&lt;/span&gt;&lt;font face=&quot;Times New Roman&quot;&gt;&lt;span style=&quot;font-size: 18px;&quot;&gt;&lt;br&gt;&lt;/span&gt;&lt;/font&gt;" style="rounded=1;whiteSpace=wrap;html=1;fillColor=#f5f5f5;strokeColor=#666666;movable=1;resizable=1;rotatable=1;deletable=1;editable=1;locked=0;connectable=1;fontColor=#333333;" vertex="1" parent="1">
          <mxGeometry x="1865" y="166" width="74" height="205" as="geometry" />
        </mxCell>
        <mxCell id="YOt-EDq2CFGh9Q1SYODQ-6" value="&lt;font face=&quot;Times New Roman&quot;&gt;Example Selector&lt;/font&gt;" style="text;html=1;align=center;verticalAlign=middle;resizable=1;points=[];autosize=1;strokeColor=none;fillColor=none;fontStyle=1;movable=1;rotatable=1;deletable=1;editable=1;locked=0;connectable=1;" vertex="1" parent="1">
          <mxGeometry x="1370" y="237.51" width="103" height="26" as="geometry" />
        </mxCell>
        <mxCell id="YOt-EDq2CFGh9Q1SYODQ-7" value="" style="rounded=1;whiteSpace=wrap;html=1;strokeColor=default;dashed=1;movable=1;resizable=1;rotatable=1;deletable=1;editable=1;locked=0;connectable=1;" vertex="1" parent="1">
          <mxGeometry x="1509.5" y="246.49" width="81.5" height="35.51" as="geometry" />
        </mxCell>
        <mxCell id="YOt-EDq2CFGh9Q1SYODQ-8" value="&lt;font face=&quot;Times New Roman&quot;&gt;Sequence Semantic Space&lt;/font&gt;" style="text;html=1;align=center;verticalAlign=middle;resizable=1;points=[];autosize=1;strokeColor=none;fillColor=none;movable=1;rotatable=1;deletable=1;editable=1;locked=0;connectable=1;" vertex="1" parent="1">
          <mxGeometry x="1374.4499999999998" y="338" width="143" height="26" as="geometry" />
        </mxCell>
        <mxCell id="YOt-EDq2CFGh9Q1SYODQ-9" value="&lt;span id=&quot;docs-internal-guid-20cc6918-7fff-7577-12aa-bc1fb561c2a0&quot;&gt;&lt;p style=&quot;line-height:1.2;margin-top:0pt;margin-bottom:0pt;&quot; dir=&quot;ltr&quot;&gt;&lt;br&gt;&lt;/p&gt;&lt;/span&gt;" style="rounded=1;whiteSpace=wrap;html=1;movable=1;resizable=1;rotatable=1;deletable=1;editable=1;locked=0;connectable=1;" vertex="1" parent="1">
          <mxGeometry x="1615.0100000000002" y="237.5" width="198.63" height="106" as="geometry" />
        </mxCell>
        <mxCell id="YOt-EDq2CFGh9Q1SYODQ-10" value="" style="ellipse;whiteSpace=wrap;html=1;fillColor=#ffe6cc;strokeColor=#d79b00;dashed=1;movable=1;resizable=1;rotatable=1;deletable=1;editable=1;locked=0;connectable=1;" vertex="1" parent="1">
          <mxGeometry x="1380.13" y="257" width="128" height="86.5" as="geometry" />
        </mxCell>
        <mxCell id="YOt-EDq2CFGh9Q1SYODQ-11" value="&lt;font face=&quot;Times New Roman&quot;&gt;&lt;span style=&quot;font-size: 18px;&quot;&gt;English Prompt&lt;/span&gt;&lt;/font&gt;" style="text;html=1;align=center;verticalAlign=middle;resizable=1;points=[];autosize=1;strokeColor=none;fillColor=none;fontStyle=1;movable=1;rotatable=1;deletable=1;editable=1;locked=0;connectable=1;" vertex="1" parent="1">
          <mxGeometry x="1305.75" y="102" width="131" height="34" as="geometry" />
        </mxCell>
        <mxCell id="YOt-EDq2CFGh9Q1SYODQ-12" value="&lt;span id=&quot;docs-internal-guid-20cc6918-7fff-7577-12aa-bc1fb561c2a0&quot;&gt;&lt;p style=&quot;line-height:1.2;margin-top:0pt;margin-bottom:0pt;&quot; dir=&quot;ltr&quot;&gt;&lt;br&gt;&lt;/p&gt;&lt;/span&gt;" style="rounded=1;whiteSpace=wrap;html=1;movable=1;resizable=1;rotatable=1;deletable=1;editable=1;locked=0;connectable=1;" vertex="1" parent="1">
          <mxGeometry x="1310" y="136" width="511" height="93" as="geometry" />
        </mxCell>
        <mxCell id="YOt-EDq2CFGh9Q1SYODQ-13" value="&lt;span style=&quot;font-family: &amp;quot;Times New Roman&amp;quot;;&quot;&gt;&amp;nbsp; &amp;nbsp; &amp;nbsp; &amp;nbsp;&amp;nbsp;&lt;/span&gt;&lt;font face=&quot;Times New Roman&quot;&gt;You need to complete an intent recognition task.&amp;nbsp; I&#39;ll start by giving a list of intent candidates:[&quot;AddToPlaylist&quot;, &quot;BookRestaurant&quot;, &quot;GetWeather&quot;, &quot;PlayMusic&quot;, &quot;RateBook&quot;, &quot;SearchCreativeWork&quot;,&#39;SearchScreeningEvent&#39;]. I will give you some examples below for your reference.&amp;nbsp; Finally,&amp;nbsp; I will give you another new English sentence asking you to answer one of the most relevant intentions from the list of intentions.&lt;/font&gt;" style="text;html=1;align=left;verticalAlign=middle;whiteSpace=wrap;rounded=0;labelPosition=center;verticalLabelPosition=middle;movable=1;resizable=1;rotatable=1;deletable=1;editable=1;locked=0;connectable=1;" vertex="1" parent="1">
          <mxGeometry x="1317" y="145.38" width="497.28" height="83.62" as="geometry" />
        </mxCell>
        <mxCell id="YOt-EDq2CFGh9Q1SYODQ-14" style="edgeStyle=orthogonalEdgeStyle;rounded=0;orthogonalLoop=1;jettySize=auto;html=1;movable=1;resizable=1;rotatable=1;deletable=1;editable=1;locked=0;connectable=1;" edge="1" parent="1">
          <mxGeometry relative="1" as="geometry">
            <mxPoint x="1861.71" y="297" as="targetPoint" />
            <mxPoint x="1823" y="296.51" as="sourcePoint" />
          </mxGeometry>
        </mxCell>
        <mxCell id="YOt-EDq2CFGh9Q1SYODQ-15" style="edgeStyle=orthogonalEdgeStyle;rounded=0;orthogonalLoop=1;jettySize=auto;html=1;movable=1;resizable=1;rotatable=1;deletable=1;editable=1;locked=0;connectable=1;" edge="1" parent="1">
          <mxGeometry relative="1" as="geometry">
            <mxPoint x="1861.7000000000003" y="207.52999999999997" as="targetPoint" />
            <mxPoint x="1823" y="207.03999999999996" as="sourcePoint" />
          </mxGeometry>
        </mxCell>
        <mxCell id="YOt-EDq2CFGh9Q1SYODQ-16" value="&lt;font style=&quot;font-size: 18px;&quot; face=&quot;Times New Roman&quot;&gt;BGE&lt;/font&gt;" style="rounded=1;whiteSpace=wrap;html=1;fillColor=#f5f5f5;strokeColor=#666666;movable=1;resizable=1;rotatable=1;deletable=1;editable=1;locked=0;connectable=1;fontColor=#333333;" vertex="1" parent="1">
          <mxGeometry x="1310" y="243" width="38" height="114" as="geometry" />
        </mxCell>
        <mxCell id="YOt-EDq2CFGh9Q1SYODQ-17" value="&lt;span id=&quot;docs-internal-guid-20cc6918-7fff-7577-12aa-bc1fb561c2a0&quot;&gt;&lt;p style=&quot;line-height:1.2;margin-top:0pt;margin-bottom:0pt;&quot; dir=&quot;ltr&quot;&gt;&lt;br&gt;&lt;/p&gt;&lt;/span&gt;" style="rounded=1;whiteSpace=wrap;html=1;movable=1;resizable=1;rotatable=1;deletable=1;editable=1;locked=0;connectable=1;" vertex="1" parent="1">
          <mxGeometry x="1620.3400000000001" y="243" width="198.63" height="106" as="geometry" />
        </mxCell>
        <mxCell id="YOt-EDq2CFGh9Q1SYODQ-18" value="&lt;span id=&quot;docs-internal-guid-20cc6918-7fff-7577-12aa-bc1fb561c2a0&quot;&gt;&lt;p style=&quot;line-height:1.2;margin-top:0pt;margin-bottom:0pt;&quot; dir=&quot;ltr&quot;&gt;&lt;br&gt;&lt;/p&gt;&lt;/span&gt;" style="rounded=1;whiteSpace=wrap;html=1;movable=1;resizable=1;rotatable=1;deletable=1;editable=1;locked=0;connectable=1;" vertex="1" parent="1">
          <mxGeometry x="1626.4900000000002" y="250.01" width="198.63" height="106" as="geometry" />
        </mxCell>
        <mxCell id="YOt-EDq2CFGh9Q1SYODQ-19" value="&lt;span style=&quot;color: rgba(0, 0, 0, 0); font-family: monospace; font-size: 0px; text-align: start; text-wrap: nowrap;&quot;&gt;%3CmxGraphModel%3E%3Croot%3E%3CmxCell%20id%3D%220%22%2F%3E%3CmxCell%20id%3D%221%22%20parent%3D%220%22%2F%3E%3CmxCell%20id%3D%222%22%20value%3D%22%22%20style%3D%22ellipse%3BwhiteSpace%3Dwrap%3Bhtml%3D1%3BfillColor%3Dnone%3Bdashed%3D1%3Bopacity%3D61%3BstrokeWidth%3D2%3Bshadow%3D0%3B%22%20vertex%3D%221%22%20parent%3D%221%22%3E%3CmxGeometry%20x%3D%223001.63%22%20y%3D%22498.75%22%20width%3D%2274.75%22%20height%3D%2258.25%22%20as%3D%22geometry%22%2F%3E%3C%2FmxCell%3E%3C%2Froot%3E%3C%2FmxGraphModel%3E&lt;/span&gt;" style="ellipse;whiteSpace=wrap;html=1;fillColor=none;dashed=1;opacity=61;strokeWidth=2;shadow=0;movable=1;resizable=1;rotatable=1;deletable=1;editable=1;locked=0;connectable=1;" vertex="1" parent="1">
          <mxGeometry x="1406.9499999999998" y="273.07" width="58.38" height="53.62" as="geometry" />
        </mxCell>
        <mxCell id="YOt-EDq2CFGh9Q1SYODQ-20" value="" style="shape=waypoint;sketch=0;fillStyle=solid;size=6;pointerEvents=1;points=[];fillColor=#fff2cc;resizable=1;rotatable=1;perimeter=centerPerimeter;snapToPoint=1;strokeColor=#d6b656;movable=1;deletable=1;editable=1;locked=0;connectable=1;" vertex="1" parent="1">
          <mxGeometry x="1507.08" y="249" width="18.92" height="19" as="geometry" />
        </mxCell>
        <mxCell id="YOt-EDq2CFGh9Q1SYODQ-21" value="" style="whiteSpace=wrap;html=1;fillColor=#dae8fc;strokeColor=#6c8ebf;movable=1;resizable=1;rotatable=1;deletable=1;editable=1;locked=0;connectable=1;" vertex="1" parent="1">
          <mxGeometry x="1431" y="291.37999999999994" width="14" height="13" as="geometry" />
        </mxCell>
        <mxCell id="YOt-EDq2CFGh9Q1SYODQ-22" value="" style="shape=waypoint;sketch=0;fillStyle=solid;size=6;pointerEvents=1;points=[];fillColor=#fff2cc;resizable=1;rotatable=1;perimeter=centerPerimeter;snapToPoint=1;strokeColor=#d6b656;movable=1;deletable=1;editable=1;locked=0;connectable=1;" vertex="1" parent="1">
          <mxGeometry x="1473.3199999999997" y="266.37999999999994" width="20" height="20" as="geometry" />
        </mxCell>
        <mxCell id="YOt-EDq2CFGh9Q1SYODQ-23" value="" style="shape=waypoint;sketch=0;fillStyle=solid;size=6;pointerEvents=1;points=[];fillColor=#fff2cc;resizable=1;rotatable=1;perimeter=centerPerimeter;snapToPoint=1;strokeColor=#d6b656;movable=1;deletable=1;editable=1;locked=0;connectable=1;" vertex="1" parent="1">
          <mxGeometry x="1479.9499999999998" y="282.37999999999994" width="20" height="20" as="geometry" />
        </mxCell>
        <mxCell id="YOt-EDq2CFGh9Q1SYODQ-24" value="" style="shape=waypoint;sketch=0;fillStyle=solid;size=6;pointerEvents=1;points=[];fillColor=#fff2cc;resizable=1;rotatable=1;perimeter=centerPerimeter;snapToPoint=1;strokeColor=#d6b656;movable=1;deletable=1;editable=1;locked=0;connectable=1;" vertex="1" parent="1">
          <mxGeometry x="1479.9499999999998" y="302.37999999999994" width="20" height="20" as="geometry" />
        </mxCell>
        <mxCell id="YOt-EDq2CFGh9Q1SYODQ-25" value="" style="shape=waypoint;sketch=0;fillStyle=solid;size=6;pointerEvents=1;points=[];fillColor=#fff2cc;resizable=1;rotatable=1;perimeter=centerPerimeter;snapToPoint=1;strokeColor=#d6b656;movable=1;deletable=1;editable=1;locked=0;connectable=1;" vertex="1" parent="1">
          <mxGeometry x="1472.4499999999998" y="313.37999999999994" width="20" height="20" as="geometry" />
        </mxCell>
        <mxCell id="YOt-EDq2CFGh9Q1SYODQ-26" value="" style="shape=waypoint;sketch=0;fillStyle=solid;size=6;pointerEvents=1;points=[];fillColor=#fff2cc;resizable=1;rotatable=1;perimeter=centerPerimeter;snapToPoint=1;strokeColor=#d6b656;movable=1;deletable=1;editable=1;locked=0;connectable=1;" vertex="1" parent="1">
          <mxGeometry x="1459.9499999999998" y="324.37999999999994" width="20" height="20" as="geometry" />
        </mxCell>
        <mxCell id="YOt-EDq2CFGh9Q1SYODQ-27" value="" style="shape=waypoint;sketch=0;fillStyle=solid;size=6;pointerEvents=1;points=[];fillColor=#fff2cc;resizable=1;rotatable=1;perimeter=centerPerimeter;snapToPoint=1;strokeColor=#d6b656;movable=1;deletable=1;editable=1;locked=0;connectable=1;" vertex="1" parent="1">
          <mxGeometry x="1430.4499999999998" y="323.49999999999994" width="20" height="20" as="geometry" />
        </mxCell>
        <mxCell id="YOt-EDq2CFGh9Q1SYODQ-28" value="" style="shape=waypoint;sketch=0;fillStyle=solid;size=6;pointerEvents=1;points=[];fillColor=#fff2cc;resizable=1;rotatable=1;perimeter=centerPerimeter;snapToPoint=1;strokeColor=#d6b656;movable=1;deletable=1;editable=1;locked=0;connectable=1;" vertex="1" parent="1">
          <mxGeometry x="1416.75" y="326.37999999999994" width="20" height="20" as="geometry" />
        </mxCell>
        <mxCell id="YOt-EDq2CFGh9Q1SYODQ-29" value="" style="shape=waypoint;sketch=0;fillStyle=solid;size=6;pointerEvents=1;points=[];fillColor=#fff2cc;resizable=1;rotatable=1;perimeter=centerPerimeter;snapToPoint=1;strokeColor=#d6b656;movable=1;deletable=1;editable=1;locked=0;connectable=1;" vertex="1" parent="1">
          <mxGeometry x="1391.5" y="309.37999999999994" width="20" height="20" as="geometry" />
        </mxCell>
        <mxCell id="YOt-EDq2CFGh9Q1SYODQ-30" value="" style="shape=waypoint;sketch=0;fillStyle=solid;size=6;pointerEvents=1;points=[];fillColor=#fff2cc;resizable=1;rotatable=1;perimeter=centerPerimeter;snapToPoint=1;strokeColor=#d6b656;movable=1;deletable=1;editable=1;locked=0;connectable=1;" vertex="1" parent="1">
          <mxGeometry x="1388" y="283.50999999999993" width="20" height="20" as="geometry" />
        </mxCell>
        <mxCell id="YOt-EDq2CFGh9Q1SYODQ-31" value="" style="shape=waypoint;sketch=0;fillStyle=solid;size=6;pointerEvents=1;points=[];fillColor=#fff2cc;resizable=1;rotatable=1;perimeter=centerPerimeter;snapToPoint=1;strokeColor=#d6b656;movable=1;deletable=1;editable=1;locked=0;connectable=1;" vertex="1" parent="1">
          <mxGeometry x="1405.9499999999998" y="256.87999999999994" width="20" height="20" as="geometry" />
        </mxCell>
        <mxCell id="YOt-EDq2CFGh9Q1SYODQ-32" value="" style="shape=waypoint;sketch=0;fillStyle=solid;size=6;pointerEvents=1;points=[];fillColor=#fff2cc;resizable=1;rotatable=1;perimeter=centerPerimeter;snapToPoint=1;strokeColor=#d6b656;movable=1;deletable=1;editable=1;locked=0;connectable=1;" vertex="1" parent="1">
          <mxGeometry x="1453.3199999999997" y="259.37999999999994" width="20" height="20" as="geometry" />
        </mxCell>
        <mxCell id="YOt-EDq2CFGh9Q1SYODQ-33" value="" style="shape=waypoint;sketch=0;fillStyle=solid;size=6;pointerEvents=1;points=[];fillColor=#fff2cc;resizable=1;rotatable=1;perimeter=centerPerimeter;snapToPoint=1;strokeColor=#d6b656;movable=1;deletable=1;editable=1;locked=0;connectable=1;" vertex="1" parent="1">
          <mxGeometry x="1457.9499999999998" y="269.37999999999994" width="20" height="20" as="geometry" />
        </mxCell>
        <mxCell id="YOt-EDq2CFGh9Q1SYODQ-34" value="" style="shape=waypoint;sketch=0;fillStyle=solid;size=6;pointerEvents=1;points=[];fillColor=#fff2cc;resizable=1;rotatable=1;perimeter=centerPerimeter;snapToPoint=1;strokeColor=#d6b656;movable=1;deletable=1;editable=1;locked=0;connectable=1;" vertex="1" parent="1">
          <mxGeometry x="1467.9499999999998" y="279.37999999999994" width="20" height="20" as="geometry" />
        </mxCell>
        <mxCell id="YOt-EDq2CFGh9Q1SYODQ-35" value="" style="shape=waypoint;sketch=0;fillStyle=solid;size=6;pointerEvents=1;points=[];fillColor=#fff2cc;resizable=1;rotatable=1;perimeter=centerPerimeter;snapToPoint=1;strokeColor=#d6b656;movable=1;deletable=1;editable=1;locked=0;connectable=1;" vertex="1" parent="1">
          <mxGeometry x="1477.9499999999998" y="289.37999999999994" width="20" height="20" as="geometry" />
        </mxCell>
        <mxCell id="YOt-EDq2CFGh9Q1SYODQ-36" value="" style="shape=waypoint;sketch=0;fillStyle=solid;size=6;pointerEvents=1;points=[];fillColor=#fff2cc;resizable=1;rotatable=1;perimeter=centerPerimeter;snapToPoint=1;strokeColor=#d6b656;movable=1;deletable=1;editable=1;locked=0;connectable=1;" vertex="1" parent="1">
          <mxGeometry x="1467.9499999999998" y="304.37999999999994" width="20" height="20" as="geometry" />
        </mxCell>
        <mxCell id="YOt-EDq2CFGh9Q1SYODQ-37" value="" style="shape=waypoint;sketch=0;fillStyle=solid;size=6;pointerEvents=1;points=[];fillColor=#b1ddf0;resizable=1;rotatable=1;perimeter=centerPerimeter;snapToPoint=1;strokeColor=#10739e;movable=1;deletable=1;editable=1;locked=0;connectable=1;" vertex="1" parent="1">
          <mxGeometry x="1507.0799999999995" y="263.50999999999993" width="20" height="20" as="geometry" />
        </mxCell>
        <mxCell id="YOt-EDq2CFGh9Q1SYODQ-38" value="&lt;font style=&quot;font-weight: normal;&quot; face=&quot;Times New Roman&quot;&gt;:top-k sample&lt;/font&gt;" style="text;html=1;align=center;verticalAlign=middle;resizable=1;points=[];autosize=1;strokeColor=none;fillColor=none;fontStyle=1;movable=1;rotatable=1;deletable=1;editable=1;locked=0;connectable=1;" vertex="1" parent="1">
          <mxGeometry x="1522.08" y="263.51" width="68" height="16" as="geometry" />
        </mxCell>
        <mxCell id="YOt-EDq2CFGh9Q1SYODQ-39" value="&lt;font style=&quot;font-weight: normal;&quot; face=&quot;Times New Roman&quot;&gt;:train sample&lt;/font&gt;" style="text;html=1;align=center;verticalAlign=middle;resizable=1;points=[];autosize=1;strokeColor=none;fillColor=none;fontStyle=1;movable=1;rotatable=1;deletable=1;editable=1;locked=0;connectable=1;" vertex="1" parent="1">
          <mxGeometry x="1524.7999999999997" y="250.01999999999998" width="59.3" height="13.49" as="geometry" />
        </mxCell>
        <mxCell id="YOt-EDq2CFGh9Q1SYODQ-40" value="" style="shape=waypoint;sketch=0;fillStyle=solid;size=6;pointerEvents=1;points=[];fillColor=#fff2cc;resizable=1;rotatable=1;perimeter=centerPerimeter;snapToPoint=1;strokeColor=#d6b656;movable=1;deletable=1;editable=1;locked=0;connectable=1;" vertex="1" parent="1">
          <mxGeometry x="1457.9499999999998" y="312.37999999999994" width="20" height="20" as="geometry" />
        </mxCell>
        <mxCell id="YOt-EDq2CFGh9Q1SYODQ-41" value="" style="shape=waypoint;sketch=0;fillStyle=solid;size=6;pointerEvents=1;points=[];fillColor=#fff2cc;resizable=1;rotatable=1;perimeter=centerPerimeter;snapToPoint=1;strokeColor=#d6b656;movable=1;deletable=1;editable=1;locked=0;connectable=1;" vertex="1" parent="1">
          <mxGeometry x="1445.33" y="317.99999999999994" width="20" height="20" as="geometry" />
        </mxCell>
        <mxCell id="YOt-EDq2CFGh9Q1SYODQ-42" value="" style="shape=waypoint;sketch=0;fillStyle=solid;size=6;pointerEvents=1;points=[];fillColor=#b1ddf0;resizable=1;rotatable=1;perimeter=centerPerimeter;snapToPoint=1;strokeColor=#10739e;movable=1;deletable=1;editable=1;locked=0;connectable=1;" vertex="1" parent="1">
          <mxGeometry x="1446.9199999999992" y="287.87999999999994" width="20" height="20" as="geometry" />
        </mxCell>
        <mxCell id="YOt-EDq2CFGh9Q1SYODQ-43" value="" style="shape=waypoint;sketch=0;fillStyle=solid;size=6;pointerEvents=1;points=[];fillColor=#b1ddf0;resizable=1;rotatable=1;perimeter=centerPerimeter;snapToPoint=1;strokeColor=#10739e;movable=1;deletable=1;editable=1;locked=0;connectable=1;" vertex="1" parent="1">
          <mxGeometry x="1433.9699999999998" y="304" width="12.95" height="18.01" as="geometry" />
        </mxCell>
        <mxCell id="YOt-EDq2CFGh9Q1SYODQ-44" value="" style="shape=waypoint;sketch=0;fillStyle=solid;size=6;pointerEvents=1;points=[];fillColor=#b1ddf0;resizable=1;rotatable=1;perimeter=centerPerimeter;snapToPoint=1;strokeColor=#10739e;movable=1;deletable=1;editable=1;locked=0;connectable=1;" vertex="1" parent="1">
          <mxGeometry x="1439.9499999999994" y="276.50999999999993" width="20" height="20" as="geometry" />
        </mxCell>
        <mxCell id="YOt-EDq2CFGh9Q1SYODQ-45" value="" style="shape=waypoint;sketch=0;fillStyle=solid;size=6;pointerEvents=1;points=[];fillColor=#b1ddf0;resizable=1;rotatable=1;perimeter=centerPerimeter;snapToPoint=1;strokeColor=#10739e;movable=1;deletable=1;editable=1;locked=0;connectable=1;" vertex="1" parent="1">
          <mxGeometry x="1419.9499999999994" y="273.37999999999994" width="20" height="20" as="geometry" />
        </mxCell>
        <mxCell id="YOt-EDq2CFGh9Q1SYODQ-46" value="" style="shape=waypoint;sketch=0;fillStyle=solid;size=6;pointerEvents=1;points=[];fillColor=#b1ddf0;resizable=1;rotatable=1;perimeter=centerPerimeter;snapToPoint=1;strokeColor=#10739e;movable=1;deletable=1;editable=1;locked=0;connectable=1;" vertex="1" parent="1">
          <mxGeometry x="1411.4999999999995" y="302.37999999999994" width="20" height="20" as="geometry" />
        </mxCell>
        <mxCell id="YOt-EDq2CFGh9Q1SYODQ-47" value="" style="shape=waypoint;sketch=0;fillStyle=solid;size=6;pointerEvents=1;points=[];fillColor=#fff2cc;resizable=1;rotatable=1;perimeter=centerPerimeter;snapToPoint=1;strokeColor=#d6b656;movable=1;deletable=1;editable=1;locked=0;connectable=1;" vertex="1" parent="1">
          <mxGeometry x="1430.4499999999998" y="256.50999999999993" width="20" height="20" as="geometry" />
        </mxCell>
        <mxCell id="YOt-EDq2CFGh9Q1SYODQ-48" style="edgeStyle=orthogonalEdgeStyle;rounded=0;orthogonalLoop=1;jettySize=auto;html=1;movable=1;resizable=1;rotatable=1;deletable=1;editable=1;locked=0;connectable=1;" edge="1" parent="1">
          <mxGeometry relative="1" as="geometry">
            <mxPoint x="1428.63" y="298.21999999999997" as="targetPoint" />
            <mxPoint x="1349.5300000000002" y="298.71" as="sourcePoint" />
            <Array as="points">
              <mxPoint x="1402.63" y="298.21999999999997" />
            </Array>
          </mxGeometry>
        </mxCell>
        <mxCell id="YOt-EDq2CFGh9Q1SYODQ-49" style="edgeStyle=orthogonalEdgeStyle;rounded=0;orthogonalLoop=1;jettySize=auto;html=1;movable=1;resizable=1;rotatable=1;deletable=1;editable=1;locked=0;connectable=1;" edge="1" parent="1">
          <mxGeometry relative="1" as="geometry">
            <mxPoint x="1609" y="298" as="targetPoint" />
            <mxPoint x="1459.9500000000003" y="298.08" as="sourcePoint" />
            <Array as="points">
              <mxPoint x="1513.0500000000002" y="297.59" />
            </Array>
          </mxGeometry>
        </mxCell>
        <mxCell id="YOt-EDq2CFGh9Q1SYODQ-50" value="&lt;span style=&quot;font-size: 16px;&quot; id=&quot;docs-internal-guid-4864de80-7fff-dd73-9c33-bcbfd112151c&quot;&gt;&lt;font style=&quot;font-size: 16px;&quot; face=&quot;Times New Roman&quot;&gt;&lt;p style=&quot;text-align: left; line-height: 1.2; margin-top: 0pt; margin-bottom: 0pt;&quot; dir=&quot;ltr&quot;&gt;&lt;span style=&quot;background-color: transparent; white-space-collapse: preserve; font-weight: 700; font-variant-numeric: normal; font-variant-east-asian: normal; font-variant-alternates: normal; font-variant-position: normal; vertical-align: baseline;&quot;&gt;Query&lt;/span&gt;&lt;span style=&quot;background-color: transparent; font-variant-numeric: normal; font-variant-east-asian: normal; font-variant-alternates: normal; font-variant-position: normal; vertical-align: baseline;&quot;&gt;&lt;span style=&quot;white-space-collapse: preserve;&quot;&gt;:&lt;/span&gt;&lt;/span&gt;&lt;br&gt;&lt;/p&gt;&lt;p style=&quot;text-align: left; line-height: 1.2; margin-top: 0pt; margin-bottom: 0pt;&quot; dir=&quot;ltr&quot;&gt;&lt;font style=&quot;font-size: 16px;&quot;&gt;&lt;span style=&quot;background-color: transparent; font-variant-numeric: normal; font-variant-east-asian: normal; font-variant-alternates: normal; font-variant-position: normal; vertical-align: baseline;&quot;&gt;&lt;span style=&quot;white-space-collapse: preserve;&quot;&gt;play something from 1971 by john bonham&lt;/span&gt;&lt;br&gt;&lt;/span&gt;&lt;/font&gt;&lt;/p&gt;&lt;p style=&quot;text-align: left; line-height: 1.2; margin-top: 0pt; margin-bottom: 0pt;&quot; dir=&quot;ltr&quot;&gt;&lt;font style=&quot;font-size: 16px;&quot;&gt;&lt;span style=&quot;background-color: transparent; font-weight: 700; font-variant-numeric: normal; font-variant-east-asian: normal; font-variant-alternates: normal; font-variant-position: normal; vertical-align: baseline; white-space-collapse: preserve;&quot;&gt;Intent&lt;/span&gt;&lt;span style=&quot;background-color: transparent; font-variant-numeric: normal; font-variant-east-asian: normal; font-variant-alternates: normal; font-variant-position: normal; vertical-align: baseline; white-space-collapse: preserve;&quot;&gt;:&lt;/span&gt;&lt;/font&gt;&lt;/p&gt;&lt;p style=&quot;text-align: left; line-height: 1.2; margin-top: 0pt; margin-bottom: 0pt;&quot; dir=&quot;ltr&quot;&gt;PlayMusic&lt;br&gt;&lt;/p&gt;&lt;/font&gt;&lt;/span&gt;" style="text;html=1;align=center;verticalAlign=middle;whiteSpace=wrap;rounded=0;movable=1;resizable=1;rotatable=1;deletable=1;editable=1;locked=0;connectable=1;" vertex="1" parent="1">
          <mxGeometry x="1632" y="251.12" width="198" height="101.49" as="geometry" />
        </mxCell>
        <mxCell id="YOt-EDq2CFGh9Q1SYODQ-51" value="&lt;font face=&quot;Times New Roman&quot;&gt;Task Introduction:&lt;/font&gt;" style="text;html=1;align=center;verticalAlign=middle;resizable=1;points=[];autosize=1;strokeColor=none;fillColor=none;fontStyle=1;movable=1;rotatable=1;deletable=1;editable=1;locked=0;connectable=1;" vertex="1" parent="1">
          <mxGeometry x="1310.75" y="134" width="106" height="26" as="geometry" />
        </mxCell>
        <mxCell id="YOt-EDq2CFGh9Q1SYODQ-52" value="" style="shape=image;verticalLabelPosition=bottom;labelBackgroundColor=default;verticalAlign=top;aspect=fixed;imageAspect=0;image=data:image/png,iVBORw0KGgoAAAANSUhEUgAAAMgAAADICAYAAACtWK6eAAAAAXNSR0IArs4c6QAAIABJREFUeF7tXXmAHGWV/72amQTCoQjIeiCiuwIiSEBgQ5LpTsIRVCSQ2N0Jxy4rgoCiHOEyQLgDAoqgArqoGJKuJhk2XEo4pnpCBJQE4solrIDHCgIqZ0Jmut72V+nJTiYz0++r/qqrauarf+aPee997/u9+nV953sE+1gELAKDIkAWG4uARWBwBCxB7NthERgCAUsQ+3pYBCxB7DtgEQiHgP2ChMPNao0QBCxBRkigbTfDIWAJEg43qzVCELAEGSGBtt0Mh4AlSDjcrNYIQcASZIQE2nYzHAKWIOFws1ojBAFLkBESaNvNcAhYgoTDzWqNEAQsQUZIoG03wyFgCRION6s1QhCwBBkhgbbdDIeAJUg43KzWCEHAEmSEBNp2MxwCliDhcLNaIwQBS5AREmjbzXAIWIJo4pYt8lcBTANhCjPeAOFpAMW3xuCGFYfQO5rmrHjCEbAEEQbowJt5s7WjsRjAQYOoPNdSwYT7Z9HLQpNWLAUIWIIIg5Qp8veJcEId8cdHvYsJS4+mt4VmmyY2eTHv4PfgYAAtIKzycvRg0xpPcUOWIILgTVzEu7dUsEogqkTu8fI0VSgbudj4JbxF62pcR4SjN2iMUVzdg+MfOZLeiNyJFDdgCSIIXsblUwi4WiC6ToTxI69AXxbLRyQ4aRHv6ldwNwEfGagJZjxVqWD8g0fQ3yNyIfVmLUEEIcwU+QYiHCcQXS/CwDfLebpUR8ekbHuJJzs+bgdhs6HsMlAq5ylvsu3hZMsSRBDNrMtzqmP3iwSiG4owjvQKdIu2XoMK7UU+2iH8VMPMAV6e7tOQHzGiliCCULe7nHMAVyC64TCf0Q3GlPJMWqarG1Y+6/Lc6iDvfB19Bq4t5+lkHZ2RImsJIoj0XnfwmM3fwcME7CYQ70+SN5xW7Nc5g57Q1dWVzxT5pxtNxiVGGEu8Ak2TiI40GUsQYcSzC/mjcPAogK2FKv8/H2H8sdXH3lHtkWRLvDkzlhAwWde3mvzFXp7ODak7rNUsQTTC276Ixzo9WFZv4juQSQb++60x+FfTu+3jF/IHWx3cS8AnNbrSl7w+t2Lnrhn0bBj94a5jCaIZ4UkLeQo7uCfYcNN/7vOequ7EzyVfX3VjjfYS7+b4uBeE7cLaY+Cmcp6+FFZ/uOtZgoSIcLbEX1J7HSFUYeqFzJT4AGJ0ANg8jB+BDmNVq4PMfTl6PbSNYa5oCRIywNkiXwzCN8OoM3BeOU/6y8a1xjIlPooYPw75Fet1uQzC570cvRWmDyNFJ7UEmXALb9XaipPBmAhCKxgvAXgYq3G9dwytaUYAM0W+mQhHhWzrKC9P83V1My5fSsDZunr95H/q5enfG7QxItRTSZDaRtg1AN67UZQYL1YcfHZZjp5sRgSzLt8LYP8wbfmEKV05ekCqm3F5AQEzpfIDyTFwUTlP5zViQ0d3Yon3cRjTwNgDwAuOg7s6c3SXjo04ZVNHkHaX2x2gXAe011rasNP9h9NrUYO773zectNWLAfhU7ptqfskBIz3CvTboXT3L/F7ehhLAGR029hAnnCMl6OfNGRDqDyuxJuO8vEjIszqr8KMP5KDL3g5elxoLjax1BEk4/IvCRhXFzHGNV6BvlFXzoDA5BJ/yGc8AuBDIcz9udKKvZdNp78MpNu+kLd3CEtB2DmE7V6Vt3zG9K4CLW3AhpZqxuX7h9qXYeBvzJjQVaCntAw3WThVBJnSwVtXuvGqBCNm/L1coPdJZE3ITCzxJx0fDxFhS117zPgNORjff8Ks9l2ogl8Q8H5dm33kX6q04KBlM+g3DdjQUhV+5ZXNxV6eZmgZb7JwqghS+6X+kxijFuzizSB1JbYpT3CClnF/mMaYsbRcoPW3FTNFPpiAW8NsSq5vn/G0zziwayb9MYxPYXUyRV5MhMMl+g7hww/k6M8S2ThkUkWQ2rVX8bKkTziiK0cLmgls1uUjAfwsVJuMO0FYAcYaEC4LZaNXieG1OpjW7D0ONfcY7eNvIGwi8t/HJG8meSLZGIRSRRCFT8blvxKwrQQrBr5dztOpElmTMhmXzyYgtrsgYNziFUgRtelPpsSH1TYwZW0zDvEKdKdMuPlS6SNIke8mCu5W130Y6CrnqbGVn7qtDCyQLfIPQTg2pHpoNQYuLecp1AZm6Eb7KGZdVl9PMTmJsHNnjp4x0XYUNlJHEJ0dbAZWl/M0Jgrg6tqcy052l+DMVqg9krr2+wkwQ53vOrZcILXDHs8zl53MLvgHAVuIHGC86BXooyLZmIRSRxDdT7jP+GRcS4nBPZK3sYwIe0YZXwbeIcJ0L0e/iLKderazJZ4Kxs/ryfX+nxlXlwt0mlQ+DrnUEWR8iT/SxnhRA6xQRzo07A8pGixNr8UKEHYwZbOvHQZecRgHdBZImnUlCjcCmxmXbyRAnKyCgAmdeVoemUMGDKeOIKrPWZf/AeA9wv5/x8vTKULZSMQmF/njFeDXRNjKcAPPdBMOXJ6jPxi2G8pcxuXXCJDuPb3m5WmbUA01USmtBFFDicEyHG4AHzOWlQvU3kRMB2xq0kLe13fQVV3dGmXCFwYeWtONqUnJa6WxOdjb/Ru8PH3FBBZR2kglQTIuX0LAORJgYp2o93Mw6/I0BjoIaAh3Ztz6ioMjn8zRWgkGzZDJuHwNAeLEDz7joGYefQmLQUOBCttoo3rtRT7coSBPruiJc6Le38FMkU8lwlUixwcWutzL01kN6EeimnVZnSX7J4lxdUiz/HR1uGnoZqWkzbAyqSRILc/sCxqdjnWiPgBJ9BPRMXwinOTl6XqNfjdFNFPkvYnwK43G5nt5CnuPRqOZxkVTSRDV7bRN1PuGqpYh5Xlx+NTREweHxb2MO5i/2SJfBoL4q1Y7WayuCyf+SS1BMkW+hwgHShBOykS911ddgpCP/TtnUqhDkBJ8GpXJFvk5ED4ussNY8+Zm2Np0dhdR2yGEUksQnV+tJE3Ug6/fuhxb8i+Ijx29maQzpAzxKoRTUQmyuYIhL3z1tczAbeU8iU76hvPIrFZ6CVLiGWDcKoUjSRP14USQjMvnEnChNA5MOLqco3CnnaWNGJRLLUHaS7yjw/i9BhaJmagPJ4JkXX4MCO6bS55K9ybYavmh9KZEOAkyqSVImifqw4Ugusd+GLi3nCfRvDEJ5FA+pJ0g4owiSZqoDxeCZF1WBw2v1HiZT0jiMvVQ/qedIPMAnCkJUJIm6sOFIJkiLyfCfkL8eS1hm4dy9DeJfFJkUk2QTJG/SISSFMykTNSHA0GmLODtelrwF+mxGWb8slyg8dJYJUUu1QSZsIg/1lrB/2iAmYiJuvZJgAQu82aKfAIRvq+B/elenho5YqPRlDnRVBMkrRP14UAQ3YyS3YQdknIsX4c+6SdIke8DYYqk00mZqKedIKpgDxjqTo6sBARjlVcg6VKwJJRNk0k9QTIuX07AGRLEkjJRTz1BXP43AOIUpsw4v1wg8WaiJJbNkkk9QXQLbCZhop52gmRcVuXeviB9SX3C7l05+m+pfJLkUk8QdZ3VJzynAWrsE/U0EyT7Y96Ex+B18c3IFGQuGbb7IKpjwUpWD56QZvKLK5lc3yBkF/OH0QN5OtCErGJNKvFe7GOuKryj8YOUyAteUv9T9QVRCaJbfIwFYQ8G9iJg7IA1Qobu/TNoxf7edJLn+JWiKZQLMrY7kCdaiJkgExfzB5xuzAtTYpqAGZ15Et/+FELYNLFEEiTbya30Mnb1gT0J2BOEsUEBFsJmJpBRk3UCrnhzDK6I415CWoZYB9/No1e/gdNrl6FC10IMstcTOqpzkY60zUViJ4ga09Im+DQ7GMu9hEBQjGa0CTLUsfGnaqLos7wC3dKEttY3oXvIDzF8QYJTCsAVIJjOfPicSlzh+OjonEmqpkqin6YSZPwS3qJlDcY6jD0ZGFv7OuwiXk+PCkrGIxXgxGUFWhlVE33tJpkgExfx7i2VYIe8GcdC/gzGbUzoeD+h69YcVZqBv04bkRFEpd3c4h3sB8Zngi+DGiYB/6zjXAyy8yutOGOwak+m/EniHESdrao4mAdCLMU9VcGjaorW24lwa5JqGBoniBoyYVOc1ui41dTLqG2H8XZ1RWwe3sGVUVXLTdIXpDbPOIUJ54iTTmuDqqfAwJvEuFvNWTZ5F3ctPZre1rNgTto8QVxW12ATXVZLAh8DfyDCGV6OXIm8jkxSCKLyixHhSgJ21PG/qbKMNUy4V03ye7qx5MEj6O/NbN8oQdqLfKBDQcr/4fOo+UkrjjNZ4y9uggTL5YwbmzTPMPku9IBRDrJTOujwcvSSSeMD2TJKEJ1UPFF3zLh9xk/g4GwTQYlrDjKxxNu2+Lg0jsI+xuMBQN0xqW4BLCHCzSbiEilBgrnHGKyOAoik2FR1OABcXM5TQ/UD4yCISnlafafOD1OFNyn4D+rHupqO1496F3NMz1eMfUHGL+QPtjmIpVqpqq5EwO8YUMu0K4ixsnsMVrSuxlFEQUqarU0GmYHnHWB22B3iZg6xVMJsMK4UJ3aTA/V6dXn+opYK5vc4+CwIqjbhAdIjP/Jm5JLqi0IODupfTltuYWNJYwRRprMud1d/YVsbcUigWwHjqYAMhBVEWDlqDR4b7Jdj/xK/p8fHBSCcFIFvyyuE45bl6EmB3+tFmvEFqc0z1H6G6RqNaq/iR6hgjjeLNqhZr6oQd4/GVAamAcF5rffq4GJC1nSNRrMEKXIRhLyJjvax8TgzHqser17JDlbQ23gszPLrhCJ/ooVwHQEHGPYPYPyo4uCcZTl6RWI7ysOK2QW8DRyoXLnmC4gyVLnmr3kFEmVSzLq8f/WYiVopU0fjPyTBplEZtfpYzpOxal5GCaJewlZC+IqljEeZamRgrCgX6NeNAtZff1KJP+f7uJoInzBpW6X0r6ZRuqBcoKvr2Y2KILXSCudpVN+q52rwf2b83gFO7SzQEpHCAEKqgBBT8GWZBsLOYe1I9Lw8GXuvjRnqdTzj8iRi3FH3YCHjETVMUl+GCrCyWcc8+vh5cjUjxwWmhwGSl8k0QRTp2cc1pucZOqSXvLi9MpNKvJOvviyMQ0HYV0dXIptogqgOqPGvw/gGGBkQtg+GR4oMhJXk47EkFJxUfgYFNrtxMQDjpcAY6CTGyQMNR0wRpDbPuCaSUtOMn1QcnCEdNkpe3IFk1OJO67ovy6HSbP1DtsV4wiuQOuxq5DH+BTHiVZONRDmhZcaNax3M6ZswrdFJ+rgSv28U4yICjo/goOfySgtONLkxKg1nbUHl81hHmKnVrI3aR+wZOLWcp29L26wnZwnSB6Gojl4EQxXC3N7ANfIFybh8ChhzTe9nRHm0pt5LONj/My4fUhuGKcLUXapnxh/XOtjpoRwZ24+zBBkgOlFtqjHjWcfBKdyCVbpXbqkFu0ayuGBo8zMsCaR6tSq6h4GDSf5Gd1QY+KtPmKS75F6vfUuQQRBSxzIcxjwC/qMeiLr/VyWcCRgn1mM8EsVklhk/JgfnRHVMQ9w/TcFsifcAYwoYExnB6etHR7+LG03voiu3LEHqBKfJF4g0X5XQ4rHNM0J7HJOiJYgQ+AivoAo9MCDGeNEnnNGVJ3HCbwOtptqEJYhG+NYnMQDOrrvPo2E3clF1CQy4DKtxVZhTCJH7l+AGLEFCBKc3DQ4IR0nT/4dopmEVVodgGD/z23BW1NeIG3Y2oQYsQRoIzMQi79kCfD+KCXQDbq1TbXIiiob9TagBSxADgWkv8SyHcXn1lOuHDZhryITaCwDhzHKeFjZkyCoHCFiCGHoRahfGzqpeqjqDgE0NmRWbCS5zMS6n1bjCzjPEsNUVtASpC5GegNol5x5cQcBMPc1w0mqeQYwFlTbMtvOMcBgOpWUJYh7TwOLEEu/TwkECtr0iakKZXVFhHNfsk9AR9idxpi1BogwJM2VLOJqBywj4gMGm1NXms7wcbgERG7RrTfVDwBKkCa+Euor67mh8kwCVOCF0zmGVdBuMb721GS6PI+l2E6BKXBOWIE0MSS2ru6r0Ol27WUYRbZgdZ9kGbZ+HgYIlSBOD2CBBXKcNZz4wnV5sossjvilLkCa8AiqrfesazCHg640MsaqlGlQazm+PfheXRHFytQlQpK4JS5AoQzaXnezO+DITLiTg/caaYrwMYI73NG7CXPKN2bWGNkLAEiSil6K9xJMdH98FYdeImlDHSZ7wCSd25akrsjZGuGFLEMMvQPsi/henB1drFrpsyItq/ZXbuQWnd82gZxsyZJXtFySqd6A3g2P16ueJRGiLqp3B7DKjG4Tr2ggX3JcjlRbUPgYQsF+QBkFUBUf5ZZygkjIQ8L4GzZlQf00lddjWwQ+SWNLMRAebacMSpAG0awnbVGLoSDMFhnKR8bRPOK0rT3eH0rdKAQKWICFeBJUZkH18D4QpIdSbq8K4nxyc1Jmj8Clhm+txolqzBNEIR5AYugUXAfhyBAnbNDzRFlUZ2X+ICs7tn5Fd29IIU7AEEQR8rxu4bYv3Bpt8c0wnhhY0b1LkdWZc8tbr+M6K40mVqrBPHQQsQeoAlCnxYeTjW6YTQ8f5ZqoE29V8UrO7CtQRpx9paNsSZJAoTSryp5mgEkObLkCjWnwQwASNF+RhAP+qIS8VLRPj60lJJi5xunYhTWWGn6y+5gz8r0qK/uYY/CCKE86WIP2isl8Hv79tLeYR4RhJwDRlnmHC16iCZ+HgebGujx19wiccwncB7CTWEwqqDIt+G76Z1BuJ7SXezWEcWivGM3agbqnUo04LJnfOoCeE3RaJWYLUYFJ3ynkMTlHzDALGiNCTC70WnJ3K0/VKJbuQP6pLEG8mvRDouqxKNaiSDXWTOcvdU6dWggKsl9E7+FYS7rRPcnm8r+qHANOrVWw/JumLSljR5mA3kxulkRJE5Y9CBdsvy9GvJB2MSyZb5AIDVxBhe9M+MPDt/rvbjRBE+ad27bsZ5xMCQpt+/gTGbK9ARdOG69nLFPlgAg6vVhk7lIBt68kP8v+LvTydG1J3I7VICFJLLnxt33F29fP4m2r5rcdV4U0HWPHGGDwWxZhRB5jsQv6MOp4RUV6rxT5hdleONhpKNUqQ3j5OWMQfa63gilAXsOoBxXi0Vo9QzX8iefadz1tuOgoHB0MnxudMZKtk4C/lPH3QlMPGCdJe5OOIcC0Bo4ZyUpVuBvAMEVao6lMMrHAIK02W8B2s/aA+RzfmMWGW8cyIjFU+48SumfTLwdpvL/GODuP34iD62LF3iDWQTvtC3s+hIIHdp8U2pYKMotOGs0xd1FJzvNa1mOYQDmNgcr33ROpmX7nElmDLlnhCNS39sjCdUjq1VJnPqpJt6kvjqxLPwApTY8q97uAxm7+NM0GYbTp3FXOwmnKOl8PN9RIpmCZIgHdvggjGpUQw9gu6znZwUevq0e/i0jAXtSYX+eMV4PBaAc9xxn+U+rxw6oe3XKCWsO9gfz2jX5Csy3cC+Jwp53rtqHV7tZQHxgofWNnt4NG+Jc3qthfhy1NL2HalTiKFSAhSA6HPj8DpESw2vATCHO+LuKnej8CkEu/FPg6rkSK6OzH9g8941CvQ3nXfCaGAaYI0LQWNWrHoOzxjwq8HKjhZWw25lggDLg8KcRpMbL5DOOuBHKk0POLH1BxkqAYnl/hDPmMegCPFjgkF1XxS7Z94M0nVTV//1C6JqaGTKshpfMFD4p7POL6rQDdKZCUyxggyZQFvV2nBS5JGo5KpDXMeq37FVH31VcyYRYQvRtDecvj4hjeT1ERW+2kGQXqdCn7JOdjwHK/taD0FxpLq/swCNcGufuG/YLqkdr3mN/p4MDrKBdLPGDNEQ8YIoj7tW7wT1KEYto8qdAnG6eUC3dpIJ5tJkF4/VQEgEK4k4CON+J5IXTVHAq5d6+B8kwU8VV+NEUQZy7i8lIADEgliA06peQYBF3p5UhncG37iIEiv01mXz6wdutQusdxwx80beJgZHa0+br5/FqlEFsYfswQp8Tgwlke5SmEcgSEMBkvRhP/sbsOcXx5OfzXVdpSTdImP6tg+O7iECF9K2bH9nuphAk+Rghzc1ozio0YJooKTdfn86t+5kkAlWYaBTmKc7BXot6b9jPML0rcv2SJ/Sh3IJAQH/xL7MHAHMxb5Fdzx4BH092Y6apwgyvnaxtUlIGSb2RkTbfXWMu/M0V0m7A1kIykE6fVNXR2OogZ7aPwYbzPhLjAWjV6Lu8PsvYRuu59iJARZP95VBwA3w1j4+AwAtTat/u5EBMdUB0zZYeBvxLgQ2+F73iRSn/LInriHWAOSViWf+CtOrG4LqjNezU8+wXiVCbc7hI6XgXufzNHayAKgYThSggzkh8p0vmY09nIUYRjqLNRnGPh4XPOWWrqcH6wlXKC1+agBcn/RJBKk18cmpy/6EwO3kY+ObVuwLIlZWJpOkIHeq+DQWhv26SVM7e8ODbyDMlXGnX4rTm12wrUkE6QXOJUAjyq4ioBDZGDKpNQQlggdFUJH0k95qx4lgiADQTuuxO8b5WNf9YWpDc32NlaERqXsdHByV44ekIXVrFQaCLKeKC63O6pSViMpVBmrGOggoCOKRQ+z0dnQWmIJMlCn1fGJCmNPNZ8hYJ8acXQvDpW9PMW6eJC0SbrkBaud0r5Y954GEw4v5+g2SRtJlEkVQQacXKrbeYSnQNhEAjADF5XzdJ5ENiqZNBJEYaHmj2tHB5e0VOoj2cOY5xXobJlw8qRSTxDd4QoxpnUWaEmcodD1GXXugzS7L1mXXxVf+WW86BXoo8320VR7qSeIOmNEhJIYkFZsH3cZs9QTpMg/BOFYMeaM3dI29+jtW+oJknVZHelW54vqPirzRTlP29UVjFgg7QQJ7o4TxDl/GTivnCf5sCxi/HXMp58gRb5PmiOXGT8vF+izOgBFIZt2gqhMk5u/B68SYUshPo97eYriPo6w+fBi6SeIy/+QpgNNwgRdhSrtBFF9yBT5FiLMkr563YQdlufoD1L5pMilmiDqrrNPeE4KZhIm6MOFINkSzwBDfC+GGaeVC3S1NFZJkUs1QbIlzkPVD5c+CZigDxuCrEu097pGVpLlXp500q1KoxqpXKoJkimySvY2W4JQUibow4Ugqh/ZIv8XKMh+WPdRGWvWErZp1nm3ug4JBdJNEJcfIGCSpK9JmaAPJ4K0F/loh/BTCf6BDOMrXoFuEMsnQDDtBFFXYTcV4mg0JaWwzQHFhsMkXXVs/BLeom0N1AUmaR6qe7w8TW0Eu2brppYgQbnlCn4nBSwpE/Th9AVRfdHMQ1Dp3gRbLT+U3pTGLW651BIk4/JMAhaIAUzIBH24EaSWbf4H4jgAR3l5mq8hH6toagmSdflKAKdJ0EvSBH24ESS4lsB4VXrhTSVcMJ27SvIOhJVJL0GK3Cm9887A3eU8GU+JGhZ07dO8wAHVJdL7wrYXtV7WZVUxS5SYTqVQqq1mqXokiX/SSxCX1ThWlNuJGReWC6SyrSTiCcpIM56WOqNeKoeQizKRhNSXgeQyRT6VCFdJbSRpPljP51QSRPcFS1JAahVzu3RrDqocXUQ4qbdKVb3ANvP/40v8kTbGi9I2mfGzcoGOlsrHKZdKgmSLfAQI8olegiboGZfV1VOV9TzUw4xvlQt0RijlCJWyLqucyHtImmDGG+WnsRXmkqoRk+gnlQTJuHy1tPxYkiboOgsLQ701zLj1FQdHJiU1jvI14/K5Kj2r9G1nwoHlHN0rlY9LLp0EKXIXESZKQEvKDnrG5S8TYCwtPwMPrenG1EeOpDckOEQtM2kR78oV6GShvN7L0wlR+9Wo/XQSxOVU7aCrC0bVBBN3RpAw75luwoFJOUaeLfILIEjTNb3m5WmbRl/gqPVTR5D2Iu9SXdF5UgpM3BP09kU8lipBQm/pkRhp1wI5Bl5xGAd0FmiVlmIEwtkiXwbCWVLTvo/xQ9VylNqJUi51BMmU+Chi3CwGJcYJenBfBXi4Wkk30l/KoDwDYbqXo1+IcYlAMFPkvYmgU/L7Ki9Pp0fgijGTqSNItsjfAeHrEgTinKBP6eCtK2uxQmPIIenSoDK1qsHHlgv044YMNaiccfl/xQn+UpDxJH0EcVlV0RVdvIlrB31ciTcdxfBqye0afOW01S/38iQe5mhbr6OQcVmVUzhZbLcFu3gzSLxpKrZrSDB9BCnyanGSuJh20HUuEhmK4wZmmLGgXKAjorBdz2a7SlUKlOvJ9f4/7jliPT9TRZAg8zhDJWkQPT7h0K4c3S4SNiSUdVmdbP1KKHOMs9lB2QHWso9fNDJ3YaCrjfAFUzXmdfqTLfIrUt/Jx/6dM+l+HfvNlE0VQXQvGjmED+uWaG4E/EyRZxPhijA2+u+QT17MO/g9uEfVUwljT+kw8CS14qBmJ8rLFvlaEL5a12/GGozGB7zDSPyjV9emYYFUEaQ2tv+HJFEAA8+X8/Qxw3gNai7r8rRaBnNtTFWNjHKeDu9vfMItvFVLK+4iYFwD/XiJGFObuQw8scTbtvh4HoTNhvSbcZ1XoK810LfIVbWDGblHdRoQn2VifMMrkKoPHvmjO+7u65DaES/nab+hnMwUeTERNiKQRsfe8hnTuwq0VEOnIdGsy0cC+NlgRpixss3B5DiGgDodSx1Bahd0lhHwyUE7yvitV6DddIAIK6s2LonwCAFbhLDxTE8PxkkKU2Zdvg7ASSHa+H8VwrFejv6zIRsayrW8yep4zXv7qc1vJXw16eRQPqeOIMppNVnv9nEtEY7qHy9m/I7aMKUZ4+5sif8JfrARKD1esd5dtQNOPvbxZtIL0neukTlOn4Yv8Qo0R9qmCbn2Ih9IhD0YeMEZhaVJnnP0728qCdLbiUkuj2dganXsvzuA/1GlvbwcqdttkT+qVsa7o7CMCNo5Z2sXoNo7c7RC19H2Es9yGLfo6m0wrEvRfYxG+mlCN9UEMQFAKBtz2cnuEqww7R/wfYARAAAC00lEQVRCv8KMQ8oF+nkI3UBFzXlIHX4MN6zrbbYMwue9HL0V1o+RoGcJEiLKmSLfRIRjQqjCB77Ulaebwuj21Zm4iHdv6cFSEMKXc2Cswmhk0zTkaRQ3XX1LEE3EMkU+jwgXaKqtEzdcjkzVbPQZapOtkb2SUjlP+VD9GQFKliAaQdZOtdnHdlTHP2qnC+6SZhUZqLtEyHbmSHw8RAOy1ItagghDmC3xBDDUQUntRx37KOcpo62ooZB1eRGA6Roq60WTes89TF9M61iCCBHNuqxOnGoPZZjxVJuDcc1Y89e5CtC32wzcXs6TKEu7EK5hI2YJIgildqHQmk11H6WHsHczr8RmXVbZJlXWSfHDwHfLeRLdsREbHSaCliCCQOpm7Fg3Hw9u+Y33cvS4oAmjIpNcns6AGnKJnqSfqBV1IiIhSxABsGGOeRAwtTNPaq8kliezkCeCgkQRQxbaVCmEygXKxeJkChq1BBEEKVPkE4jwfYFoIGJqr0Pa3mBy2UW8M3qCeyUDHoVRc4+1hGPSVvWpUVx09C1BBGjpJCNIWh7gfefzlpu24XsA1Ona4FEniB0f5yb5opIgLE0RsQQRwpxx+XYCDhlKPMk5ZwOitOATYLzgzaJXhd0e8WKWIMJXIDicOBoLByUJw/UKVBCas2IpQcASRDNQ2SIfD4KqET6BCd0Anqred/hOOU8LNU1Z8RQgYAmSgiBZF+NDwBIkPuxtyylAwBIkBUGyLsaHgCVIfNjbllOAgCVICoJkXYwPAUuQ+LC3LacAAUuQFATJuhgfApYg8WFvW04BApYgKQiSdTE+BCxB4sPetpwCBCxBUhAk62J8CFiCxIe9bTkFCFiCpCBI1sX4ELAEiQ9723IKELAESUGQrIvxIWAJEh/2tuUUIGAJkoIgWRfjQ8ASJD7sbcspQMASJAVBsi7Gh4AlSHzY25ZTgIAlSAqCZF2MD4H/A2IWE4zvcqcJAAAAAElFTkSuQmCC;" vertex="1" parent="1">
          <mxGeometry x="1880.7499999999995" y="279.87" width="42.51" height="42.51" as="geometry" />
        </mxCell>
        <mxCell id="YOt-EDq2CFGh9Q1SYODQ-53" value="" style="shape=image;verticalLabelPosition=bottom;labelBackgroundColor=default;verticalAlign=top;aspect=fixed;imageAspect=0;image=data:image/png,iVBORw0KGgoAAAANSUhEUgAAAMgAAADICAYAAACtWK6eAAAAAXNSR0IArs4c6QAAIABJREFUeF7tXXmAHGWV/72amQTCoQjIeiCiuwIiSEBgQ5LpTsIRVCSQ2N0Jxy4rgoCiHOEyQLgDAoqgArqoGJKuJhk2XEo4pnpCBJQE4solrIDHCgIqZ0Jmut72V+nJTiYz0++r/qqrauarf+aPee997/u9+nV953sE+1gELAKDIkAWG4uARWBwBCxB7NthERgCAUsQ+3pYBCxB7DtgEQiHgP2ChMPNao0QBCxBRkigbTfDIWAJEg43qzVCELAEGSGBtt0Mh4AlSDjcrNYIQcASZIQE2nYzHAKWIOFws1ojBAFLkBESaNvNcAhYgoTDzWqNEAQsQUZIoG03wyFgCRION6s1QhCwBBkhgbbdDIeAJUg43KzWCEHAEmSEBNp2MxwCliDhcLNaIwQBS5AREmjbzXAIWIJo4pYt8lcBTANhCjPeAOFpAMW3xuCGFYfQO5rmrHjCEbAEEQbowJt5s7WjsRjAQYOoPNdSwYT7Z9HLQpNWLAUIWIIIg5Qp8veJcEId8cdHvYsJS4+mt4VmmyY2eTHv4PfgYAAtIKzycvRg0xpPcUOWIILgTVzEu7dUsEogqkTu8fI0VSgbudj4JbxF62pcR4SjN2iMUVzdg+MfOZLeiNyJFDdgCSIIXsblUwi4WiC6ToTxI69AXxbLRyQ4aRHv6ldwNwEfGagJZjxVqWD8g0fQ3yNyIfVmLUEEIcwU+QYiHCcQXS/CwDfLebpUR8ekbHuJJzs+bgdhs6HsMlAq5ylvsu3hZMsSRBDNrMtzqmP3iwSiG4owjvQKdIu2XoMK7UU+2iH8VMPMAV6e7tOQHzGiliCCULe7nHMAVyC64TCf0Q3GlPJMWqarG1Y+6/Lc6iDvfB19Bq4t5+lkHZ2RImsJIoj0XnfwmM3fwcME7CYQ70+SN5xW7Nc5g57Q1dWVzxT5pxtNxiVGGEu8Ak2TiI40GUsQYcSzC/mjcPAogK2FKv8/H2H8sdXH3lHtkWRLvDkzlhAwWde3mvzFXp7ODak7rNUsQTTC276Ixzo9WFZv4juQSQb++60x+FfTu+3jF/IHWx3cS8AnNbrSl7w+t2Lnrhn0bBj94a5jCaIZ4UkLeQo7uCfYcNN/7vOequ7EzyVfX3VjjfYS7+b4uBeE7cLaY+Cmcp6+FFZ/uOtZgoSIcLbEX1J7HSFUYeqFzJT4AGJ0ANg8jB+BDmNVq4PMfTl6PbSNYa5oCRIywNkiXwzCN8OoM3BeOU/6y8a1xjIlPooYPw75Fet1uQzC570cvRWmDyNFJ7UEmXALb9XaipPBmAhCKxgvAXgYq3G9dwytaUYAM0W+mQhHhWzrKC9P83V1My5fSsDZunr95H/q5enfG7QxItRTSZDaRtg1AN67UZQYL1YcfHZZjp5sRgSzLt8LYP8wbfmEKV05ekCqm3F5AQEzpfIDyTFwUTlP5zViQ0d3Yon3cRjTwNgDwAuOg7s6c3SXjo04ZVNHkHaX2x2gXAe011rasNP9h9NrUYO773zectNWLAfhU7ptqfskBIz3CvTboXT3L/F7ehhLAGR029hAnnCMl6OfNGRDqDyuxJuO8vEjIszqr8KMP5KDL3g5elxoLjax1BEk4/IvCRhXFzHGNV6BvlFXzoDA5BJ/yGc8AuBDIcz9udKKvZdNp78MpNu+kLd3CEtB2DmE7V6Vt3zG9K4CLW3AhpZqxuX7h9qXYeBvzJjQVaCntAw3WThVBJnSwVtXuvGqBCNm/L1coPdJZE3ITCzxJx0fDxFhS117zPgNORjff8Ks9l2ogl8Q8H5dm33kX6q04KBlM+g3DdjQUhV+5ZXNxV6eZmgZb7JwqghS+6X+kxijFuzizSB1JbYpT3CClnF/mMaYsbRcoPW3FTNFPpiAW8NsSq5vn/G0zziwayb9MYxPYXUyRV5MhMMl+g7hww/k6M8S2ThkUkWQ2rVX8bKkTziiK0cLmgls1uUjAfwsVJuMO0FYAcYaEC4LZaNXieG1OpjW7D0ONfcY7eNvIGwi8t/HJG8meSLZGIRSRRCFT8blvxKwrQQrBr5dztOpElmTMhmXzyYgtrsgYNziFUgRtelPpsSH1TYwZW0zDvEKdKdMuPlS6SNIke8mCu5W130Y6CrnqbGVn7qtDCyQLfIPQTg2pHpoNQYuLecp1AZm6Eb7KGZdVl9PMTmJsHNnjp4x0XYUNlJHEJ0dbAZWl/M0Jgrg6tqcy052l+DMVqg9krr2+wkwQ53vOrZcILXDHs8zl53MLvgHAVuIHGC86BXooyLZmIRSRxDdT7jP+GRcS4nBPZK3sYwIe0YZXwbeIcJ0L0e/iLKderazJZ4Kxs/ryfX+nxlXlwt0mlQ+DrnUEWR8iT/SxnhRA6xQRzo07A8pGixNr8UKEHYwZbOvHQZecRgHdBZImnUlCjcCmxmXbyRAnKyCgAmdeVoemUMGDKeOIKrPWZf/AeA9wv5/x8vTKULZSMQmF/njFeDXRNjKcAPPdBMOXJ6jPxi2G8pcxuXXCJDuPb3m5WmbUA01USmtBFFDicEyHG4AHzOWlQvU3kRMB2xq0kLe13fQVV3dGmXCFwYeWtONqUnJa6WxOdjb/Ru8PH3FBBZR2kglQTIuX0LAORJgYp2o93Mw6/I0BjoIaAh3Ztz6ioMjn8zRWgkGzZDJuHwNAeLEDz7joGYefQmLQUOBCttoo3rtRT7coSBPruiJc6Le38FMkU8lwlUixwcWutzL01kN6EeimnVZnSX7J4lxdUiz/HR1uGnoZqWkzbAyqSRILc/sCxqdjnWiPgBJ9BPRMXwinOTl6XqNfjdFNFPkvYnwK43G5nt5CnuPRqOZxkVTSRDV7bRN1PuGqpYh5Xlx+NTREweHxb2MO5i/2SJfBoL4q1Y7WayuCyf+SS1BMkW+hwgHShBOykS911ddgpCP/TtnUqhDkBJ8GpXJFvk5ED4ussNY8+Zm2Np0dhdR2yGEUksQnV+tJE3Ug6/fuhxb8i+Ijx29maQzpAzxKoRTUQmyuYIhL3z1tczAbeU8iU76hvPIrFZ6CVLiGWDcKoUjSRP14USQjMvnEnChNA5MOLqco3CnnaWNGJRLLUHaS7yjw/i9BhaJmagPJ4JkXX4MCO6bS55K9ybYavmh9KZEOAkyqSVImifqw4Ugusd+GLi3nCfRvDEJ5FA+pJ0g4owiSZqoDxeCZF1WBw2v1HiZT0jiMvVQ/qedIPMAnCkJUJIm6sOFIJkiLyfCfkL8eS1hm4dy9DeJfFJkUk2QTJG/SISSFMykTNSHA0GmLODtelrwF+mxGWb8slyg8dJYJUUu1QSZsIg/1lrB/2iAmYiJuvZJgAQu82aKfAIRvq+B/elenho5YqPRlDnRVBMkrRP14UAQ3YyS3YQdknIsX4c+6SdIke8DYYqk00mZqKedIKpgDxjqTo6sBARjlVcg6VKwJJRNk0k9QTIuX07AGRLEkjJRTz1BXP43AOIUpsw4v1wg8WaiJJbNkkk9QXQLbCZhop52gmRcVuXeviB9SX3C7l05+m+pfJLkUk8QdZ3VJzynAWrsE/U0EyT7Y96Ex+B18c3IFGQuGbb7IKpjwUpWD56QZvKLK5lc3yBkF/OH0QN5OtCErGJNKvFe7GOuKryj8YOUyAteUv9T9QVRCaJbfIwFYQ8G9iJg7IA1Qobu/TNoxf7edJLn+JWiKZQLMrY7kCdaiJkgExfzB5xuzAtTYpqAGZ15Et/+FELYNLFEEiTbya30Mnb1gT0J2BOEsUEBFsJmJpBRk3UCrnhzDK6I415CWoZYB9/No1e/gdNrl6FC10IMstcTOqpzkY60zUViJ4ga09Im+DQ7GMu9hEBQjGa0CTLUsfGnaqLos7wC3dKEttY3oXvIDzF8QYJTCsAVIJjOfPicSlzh+OjonEmqpkqin6YSZPwS3qJlDcY6jD0ZGFv7OuwiXk+PCkrGIxXgxGUFWhlVE33tJpkgExfx7i2VYIe8GcdC/gzGbUzoeD+h69YcVZqBv04bkRFEpd3c4h3sB8Zngi+DGiYB/6zjXAyy8yutOGOwak+m/EniHESdrao4mAdCLMU9VcGjaorW24lwa5JqGBoniBoyYVOc1ui41dTLqG2H8XZ1RWwe3sGVUVXLTdIXpDbPOIUJ54iTTmuDqqfAwJvEuFvNWTZ5F3ctPZre1rNgTto8QVxW12ATXVZLAh8DfyDCGV6OXIm8jkxSCKLyixHhSgJ21PG/qbKMNUy4V03ye7qx5MEj6O/NbN8oQdqLfKBDQcr/4fOo+UkrjjNZ4y9uggTL5YwbmzTPMPku9IBRDrJTOujwcvSSSeMD2TJKEJ1UPFF3zLh9xk/g4GwTQYlrDjKxxNu2+Lg0jsI+xuMBQN0xqW4BLCHCzSbiEilBgrnHGKyOAoik2FR1OABcXM5TQ/UD4yCISnlafafOD1OFNyn4D+rHupqO1496F3NMz1eMfUHGL+QPtjmIpVqpqq5EwO8YUMu0K4ixsnsMVrSuxlFEQUqarU0GmYHnHWB22B3iZg6xVMJsMK4UJ3aTA/V6dXn+opYK5vc4+CwIqjbhAdIjP/Jm5JLqi0IODupfTltuYWNJYwRRprMud1d/YVsbcUigWwHjqYAMhBVEWDlqDR4b7Jdj/xK/p8fHBSCcFIFvyyuE45bl6EmB3+tFmvEFqc0z1H6G6RqNaq/iR6hgjjeLNqhZr6oQd4/GVAamAcF5rffq4GJC1nSNRrMEKXIRhLyJjvax8TgzHqser17JDlbQ23gszPLrhCJ/ooVwHQEHGPYPYPyo4uCcZTl6RWI7ysOK2QW8DRyoXLnmC4gyVLnmr3kFEmVSzLq8f/WYiVopU0fjPyTBplEZtfpYzpOxal5GCaJewlZC+IqljEeZamRgrCgX6NeNAtZff1KJP+f7uJoInzBpW6X0r6ZRuqBcoKvr2Y2KILXSCudpVN+q52rwf2b83gFO7SzQEpHCAEKqgBBT8GWZBsLOYe1I9Lw8GXuvjRnqdTzj8iRi3FH3YCHjETVMUl+GCrCyWcc8+vh5cjUjxwWmhwGSl8k0QRTp2cc1pucZOqSXvLi9MpNKvJOvviyMQ0HYV0dXIptogqgOqPGvw/gGGBkQtg+GR4oMhJXk47EkFJxUfgYFNrtxMQDjpcAY6CTGyQMNR0wRpDbPuCaSUtOMn1QcnCEdNkpe3IFk1OJO67ovy6HSbP1DtsV4wiuQOuxq5DH+BTHiVZONRDmhZcaNax3M6ZswrdFJ+rgSv28U4yICjo/goOfySgtONLkxKg1nbUHl81hHmKnVrI3aR+wZOLWcp29L26wnZwnSB6Gojl4EQxXC3N7ANfIFybh8ChhzTe9nRHm0pt5LONj/My4fUhuGKcLUXapnxh/XOtjpoRwZ24+zBBkgOlFtqjHjWcfBKdyCVbpXbqkFu0ayuGBo8zMsCaR6tSq6h4GDSf5Gd1QY+KtPmKS75F6vfUuQQRBSxzIcxjwC/qMeiLr/VyWcCRgn1mM8EsVklhk/JgfnRHVMQ9w/TcFsifcAYwoYExnB6etHR7+LG03voiu3LEHqBKfJF4g0X5XQ4rHNM0J7HJOiJYgQ+AivoAo9MCDGeNEnnNGVJ3HCbwOtptqEJYhG+NYnMQDOrrvPo2E3clF1CQy4DKtxVZhTCJH7l+AGLEFCBKc3DQ4IR0nT/4dopmEVVodgGD/z23BW1NeIG3Y2oQYsQRoIzMQi79kCfD+KCXQDbq1TbXIiiob9TagBSxADgWkv8SyHcXn1lOuHDZhryITaCwDhzHKeFjZkyCoHCFiCGHoRahfGzqpeqjqDgE0NmRWbCS5zMS6n1bjCzjPEsNUVtASpC5GegNol5x5cQcBMPc1w0mqeQYwFlTbMtvOMcBgOpWUJYh7TwOLEEu/TwkECtr0iakKZXVFhHNfsk9AR9idxpi1BogwJM2VLOJqBywj4gMGm1NXms7wcbgERG7RrTfVDwBKkCa+Euor67mh8kwCVOCF0zmGVdBuMb721GS6PI+l2E6BKXBOWIE0MSS2ru6r0Ol27WUYRbZgdZ9kGbZ+HgYIlSBOD2CBBXKcNZz4wnV5sossjvilLkCa8AiqrfesazCHg640MsaqlGlQazm+PfheXRHFytQlQpK4JS5AoQzaXnezO+DITLiTg/caaYrwMYI73NG7CXPKN2bWGNkLAEiSil6K9xJMdH98FYdeImlDHSZ7wCSd25akrsjZGuGFLEMMvQPsi/henB1drFrpsyItq/ZXbuQWnd82gZxsyZJXtFySqd6A3g2P16ueJRGiLqp3B7DKjG4Tr2ggX3JcjlRbUPgYQsF+QBkFUBUf5ZZygkjIQ8L4GzZlQf00lddjWwQ+SWNLMRAebacMSpAG0awnbVGLoSDMFhnKR8bRPOK0rT3eH0rdKAQKWICFeBJUZkH18D4QpIdSbq8K4nxyc1Jmj8Clhm+txolqzBNEIR5AYugUXAfhyBAnbNDzRFlUZ2X+ICs7tn5Fd29IIU7AEEQR8rxu4bYv3Bpt8c0wnhhY0b1LkdWZc8tbr+M6K40mVqrBPHQQsQeoAlCnxYeTjW6YTQ8f5ZqoE29V8UrO7CtQRpx9paNsSZJAoTSryp5mgEkObLkCjWnwQwASNF+RhAP+qIS8VLRPj60lJJi5xunYhTWWGn6y+5gz8r0qK/uYY/CCKE86WIP2isl8Hv79tLeYR4RhJwDRlnmHC16iCZ+HgebGujx19wiccwncB7CTWEwqqDIt+G76Z1BuJ7SXezWEcWivGM3agbqnUo04LJnfOoCeE3RaJWYLUYFJ3ynkMTlHzDALGiNCTC70WnJ3K0/VKJbuQP6pLEG8mvRDouqxKNaiSDXWTOcvdU6dWggKsl9E7+FYS7rRPcnm8r+qHANOrVWw/JumLSljR5mA3kxulkRJE5Y9CBdsvy9GvJB2MSyZb5AIDVxBhe9M+MPDt/rvbjRBE+ad27bsZ5xMCQpt+/gTGbK9ARdOG69nLFPlgAg6vVhk7lIBt68kP8v+LvTydG1J3I7VICFJLLnxt33F29fP4m2r5rcdV4U0HWPHGGDwWxZhRB5jsQv6MOp4RUV6rxT5hdleONhpKNUqQ3j5OWMQfa63gilAXsOoBxXi0Vo9QzX8iefadz1tuOgoHB0MnxudMZKtk4C/lPH3QlMPGCdJe5OOIcC0Bo4ZyUpVuBvAMEVao6lMMrHAIK02W8B2s/aA+RzfmMWGW8cyIjFU+48SumfTLwdpvL/GODuP34iD62LF3iDWQTvtC3s+hIIHdp8U2pYKMotOGs0xd1FJzvNa1mOYQDmNgcr33ROpmX7nElmDLlnhCNS39sjCdUjq1VJnPqpJt6kvjqxLPwApTY8q97uAxm7+NM0GYbTp3FXOwmnKOl8PN9RIpmCZIgHdvggjGpUQw9gu6znZwUevq0e/i0jAXtSYX+eMV4PBaAc9xxn+U+rxw6oe3XKCWsO9gfz2jX5Csy3cC+Jwp53rtqHV7tZQHxgofWNnt4NG+Jc3qthfhy1NL2HalTiKFSAhSA6HPj8DpESw2vATCHO+LuKnej8CkEu/FPg6rkSK6OzH9g8941CvQ3nXfCaGAaYI0LQWNWrHoOzxjwq8HKjhZWw25lggDLg8KcRpMbL5DOOuBHKk0POLH1BxkqAYnl/hDPmMegCPFjgkF1XxS7Z94M0nVTV//1C6JqaGTKshpfMFD4p7POL6rQDdKZCUyxggyZQFvV2nBS5JGo5KpDXMeq37FVH31VcyYRYQvRtDecvj4hjeT1ERW+2kGQXqdCn7JOdjwHK/taD0FxpLq/swCNcGufuG/YLqkdr3mN/p4MDrKBdLPGDNEQ8YIoj7tW7wT1KEYto8qdAnG6eUC3dpIJ5tJkF4/VQEgEK4k4CON+J5IXTVHAq5d6+B8kwU8VV+NEUQZy7i8lIADEgliA06peQYBF3p5UhncG37iIEiv01mXz6wdutQusdxwx80beJgZHa0+br5/FqlEFsYfswQp8Tgwlke5SmEcgSEMBkvRhP/sbsOcXx5OfzXVdpSTdImP6tg+O7iECF9K2bH9nuphAk+Rghzc1ozio0YJooKTdfn86t+5kkAlWYaBTmKc7BXot6b9jPML0rcv2SJ/Sh3IJAQH/xL7MHAHMxb5Fdzx4BH092Y6apwgyvnaxtUlIGSb2RkTbfXWMu/M0V0m7A1kIykE6fVNXR2OogZ7aPwYbzPhLjAWjV6Lu8PsvYRuu59iJARZP95VBwA3w1j4+AwAtTat/u5EBMdUB0zZYeBvxLgQ2+F73iRSn/LInriHWAOSViWf+CtOrG4LqjNezU8+wXiVCbc7hI6XgXufzNHayAKgYThSggzkh8p0vmY09nIUYRjqLNRnGPh4XPOWWrqcH6wlXKC1+agBcn/RJBKk18cmpy/6EwO3kY+ObVuwLIlZWJpOkIHeq+DQWhv26SVM7e8ODbyDMlXGnX4rTm12wrUkE6QXOJUAjyq4ioBDZGDKpNQQlggdFUJH0k95qx4lgiADQTuuxO8b5WNf9YWpDc32NlaERqXsdHByV44ekIXVrFQaCLKeKC63O6pSViMpVBmrGOggoCOKRQ+z0dnQWmIJMlCn1fGJCmNPNZ8hYJ8acXQvDpW9PMW6eJC0SbrkBaud0r5Y954GEw4v5+g2SRtJlEkVQQacXKrbeYSnQNhEAjADF5XzdJ5ENiqZNBJEYaHmj2tHB5e0VOoj2cOY5xXobJlw8qRSTxDd4QoxpnUWaEmcodD1GXXugzS7L1mXXxVf+WW86BXoo8320VR7qSeIOmNEhJIYkFZsH3cZs9QTpMg/BOFYMeaM3dI29+jtW+oJknVZHelW54vqPirzRTlP29UVjFgg7QQJ7o4TxDl/GTivnCf5sCxi/HXMp58gRb5PmiOXGT8vF+izOgBFIZt2gqhMk5u/B68SYUshPo97eYriPo6w+fBi6SeIy/+QpgNNwgRdhSrtBFF9yBT5FiLMkr563YQdlufoD1L5pMilmiDqrrNPeE4KZhIm6MOFINkSzwBDfC+GGaeVC3S1NFZJkUs1QbIlzkPVD5c+CZigDxuCrEu097pGVpLlXp500q1KoxqpXKoJkimySvY2W4JQUibow4Ugqh/ZIv8XKMh+WPdRGWvWErZp1nm3ug4JBdJNEJcfIGCSpK9JmaAPJ4K0F/loh/BTCf6BDOMrXoFuEMsnQDDtBFFXYTcV4mg0JaWwzQHFhsMkXXVs/BLeom0N1AUmaR6qe7w8TW0Eu2brppYgQbnlCn4nBSwpE/Th9AVRfdHMQ1Dp3gRbLT+U3pTGLW651BIk4/JMAhaIAUzIBH24EaSWbf4H4jgAR3l5mq8hH6toagmSdflKAKdJ0EvSBH24ESS4lsB4VXrhTSVcMJ27SvIOhJVJL0GK3Cm9887A3eU8GU+JGhZ07dO8wAHVJdL7wrYXtV7WZVUxS5SYTqVQqq1mqXokiX/SSxCX1ThWlNuJGReWC6SyrSTiCcpIM56WOqNeKoeQizKRhNSXgeQyRT6VCFdJbSRpPljP51QSRPcFS1JAahVzu3RrDqocXUQ4qbdKVb3ANvP/40v8kTbGi9I2mfGzcoGOlsrHKZdKgmSLfAQI8olegiboGZfV1VOV9TzUw4xvlQt0RijlCJWyLqucyHtImmDGG+WnsRXmkqoRk+gnlQTJuHy1tPxYkiboOgsLQ701zLj1FQdHJiU1jvI14/K5Kj2r9G1nwoHlHN0rlY9LLp0EKXIXESZKQEvKDnrG5S8TYCwtPwMPrenG1EeOpDckOEQtM2kR78oV6GShvN7L0wlR+9Wo/XQSxOVU7aCrC0bVBBN3RpAw75luwoFJOUaeLfILIEjTNb3m5WmbRl/gqPVTR5D2Iu9SXdF5UgpM3BP09kU8lipBQm/pkRhp1wI5Bl5xGAd0FmiVlmIEwtkiXwbCWVLTvo/xQ9VylNqJUi51BMmU+Chi3CwGJcYJenBfBXi4Wkk30l/KoDwDYbqXo1+IcYlAMFPkvYmgU/L7Ki9Pp0fgijGTqSNItsjfAeHrEgTinKBP6eCtK2uxQmPIIenSoDK1qsHHlgv044YMNaiccfl/xQn+UpDxJH0EcVlV0RVdvIlrB31ciTcdxfBqye0afOW01S/38iQe5mhbr6OQcVmVUzhZbLcFu3gzSLxpKrZrSDB9BCnyanGSuJh20HUuEhmK4wZmmLGgXKAjorBdz2a7SlUKlOvJ9f4/7jliPT9TRZAg8zhDJWkQPT7h0K4c3S4SNiSUdVmdbP1KKHOMs9lB2QHWso9fNDJ3YaCrjfAFUzXmdfqTLfIrUt/Jx/6dM+l+HfvNlE0VQXQvGjmED+uWaG4E/EyRZxPhijA2+u+QT17MO/g9uEfVUwljT+kw8CS14qBmJ8rLFvlaEL5a12/GGozGB7zDSPyjV9emYYFUEaQ2tv+HJFEAA8+X8/Qxw3gNai7r8rRaBnNtTFWNjHKeDu9vfMItvFVLK+4iYFwD/XiJGFObuQw8scTbtvh4HoTNhvSbcZ1XoK810LfIVbWDGblHdRoQn2VifMMrkKoPHvmjO+7u65DaES/nab+hnMwUeTERNiKQRsfe8hnTuwq0VEOnIdGsy0cC+NlgRpixss3B5DiGgDodSx1Bahd0lhHwyUE7yvitV6DddIAIK6s2LonwCAFbhLDxTE8PxkkKU2Zdvg7ASSHa+H8VwrFejv6zIRsayrW8yep4zXv7qc1vJXw16eRQPqeOIMppNVnv9nEtEY7qHy9m/I7aMKUZ4+5sif8JfrARKD1esd5dtQNOPvbxZtIL0neukTlOn4Yv8Qo0R9qmCbn2Ih9IhD0YeMEZhaVJnnP0728qCdLbiUkuj2dganXsvzuA/1GlvbwcqdttkT+qVsa7o7CMCNo5Z2sXoNo7c7RC19H2Es9yGLfo6m0wrEvRfYxG+mlCN9UEMQFAKBtz2cnuEqww7R/wfYARAAAC00lEQVRCv8KMQ8oF+nkI3UBFzXlIHX4MN6zrbbYMwue9HL0V1o+RoGcJEiLKmSLfRIRjQqjCB77Ulaebwuj21Zm4iHdv6cFSEMKXc2Cswmhk0zTkaRQ3XX1LEE3EMkU+jwgXaKqtEzdcjkzVbPQZapOtkb2SUjlP+VD9GQFKliAaQdZOtdnHdlTHP2qnC+6SZhUZqLtEyHbmSHw8RAOy1ItagghDmC3xBDDUQUntRx37KOcpo62ooZB1eRGA6Roq60WTes89TF9M61iCCBHNuqxOnGoPZZjxVJuDcc1Y89e5CtC32wzcXs6TKEu7EK5hI2YJIgildqHQmk11H6WHsHczr8RmXVbZJlXWSfHDwHfLeRLdsREbHSaCliCCQOpm7Fg3Hw9u+Y33cvS4oAmjIpNcns6AGnKJnqSfqBV1IiIhSxABsGGOeRAwtTNPaq8kliezkCeCgkQRQxbaVCmEygXKxeJkChq1BBEEKVPkE4jwfYFoIGJqr0Pa3mBy2UW8M3qCeyUDHoVRc4+1hGPSVvWpUVx09C1BBGjpJCNIWh7gfefzlpu24XsA1Ona4FEniB0f5yb5opIgLE0RsQQRwpxx+XYCDhlKPMk5ZwOitOATYLzgzaJXhd0e8WKWIMJXIDicOBoLByUJw/UKVBCas2IpQcASRDNQ2SIfD4KqET6BCd0Anqred/hOOU8LNU1Z8RQgYAmSgiBZF+NDwBIkPuxtyylAwBIkBUGyLsaHgCVIfNjbllOAgCVICoJkXYwPAUuQ+LC3LacAAUuQFATJuhgfApYg8WFvW04BApYgKQiSdTE+BCxB4sPetpwCBCxBUhAk62J8CFiCxIe9bTkFCFiCpCBI1sX4ELAEiQ9723IKELAESUGQrIvxIWAJEh/2tuUUIGAJkoIgWRfjQ8ASJD7sbcspQMASJAVBsi7Gh4AlSHzY25ZTgIAlSAqCZF2MD4H/A2IWE4zvcqcJAAAAAElFTkSuQmCC;" vertex="1" parent="1">
          <mxGeometry x="1316.4299999999998" y="307.24" width="25.14" height="25.14" as="geometry" />
        </mxCell>
        <mxCell id="YOt-EDq2CFGh9Q1SYODQ-54" value="" style="rounded=1;whiteSpace=wrap;html=1;dashed=1;fillColor=#d5e8d4;strokeColor=#82b366;movable=1;resizable=1;rotatable=1;deletable=1;editable=1;locked=0;connectable=1;glass=0;shadow=0;arcSize=9;" vertex="1" parent="1">
          <mxGeometry x="1294" y="429" width="672" height="233" as="geometry" />
        </mxCell>
        <mxCell id="YOt-EDq2CFGh9Q1SYODQ-55" value="&lt;span id=&quot;docs-internal-guid-20cc6918-7fff-7577-12aa-bc1fb561c2a0&quot;&gt;&lt;p style=&quot;line-height:1.2;margin-top:0pt;margin-bottom:0pt;&quot; dir=&quot;ltr&quot;&gt;&lt;br&gt;&lt;/p&gt;&lt;/span&gt;" style="rounded=1;whiteSpace=wrap;html=1;movable=1;resizable=1;rotatable=1;deletable=1;editable=1;locked=0;connectable=1;" vertex="1" parent="1">
          <mxGeometry x="1370" y="529" width="224" height="117.01" as="geometry" />
        </mxCell>
        <mxCell id="YOt-EDq2CFGh9Q1SYODQ-56" value="&lt;font face=&quot;Times New Roman&quot;&gt;&lt;span style=&quot;font-size: 18px;&quot;&gt;ChatGLM&lt;/span&gt;&lt;/font&gt;" style="rounded=1;whiteSpace=wrap;html=1;fillColor=#f5f5f5;strokeColor=#666666;movable=1;resizable=1;rotatable=1;deletable=1;editable=1;locked=0;connectable=1;fontColor=#333333;" vertex="1" parent="1">
          <mxGeometry x="1865" y="454" width="74" height="205" as="geometry" />
        </mxCell>
        <mxCell id="YOt-EDq2CFGh9Q1SYODQ-57" value="&lt;font face=&quot;Times New Roman&quot;&gt;样例选择器&lt;/font&gt;" style="text;html=1;align=center;verticalAlign=middle;resizable=1;points=[];autosize=1;strokeColor=none;fillColor=none;fontStyle=1;movable=1;rotatable=1;deletable=1;editable=1;locked=0;connectable=1;" vertex="1" parent="1">
          <mxGeometry x="1383" y="525.51" width="78" height="26" as="geometry" />
        </mxCell>
        <mxCell id="YOt-EDq2CFGh9Q1SYODQ-58" value="" style="rounded=1;whiteSpace=wrap;html=1;strokeColor=default;dashed=1;movable=1;resizable=1;rotatable=1;deletable=1;editable=1;locked=0;connectable=1;" vertex="1" parent="1">
          <mxGeometry x="1509.5" y="534.49" width="81.5" height="35.51" as="geometry" />
        </mxCell>
        <mxCell id="YOt-EDq2CFGh9Q1SYODQ-59" value="&lt;font face=&quot;Times New Roman&quot;&gt;句子的语义空间&lt;/font&gt;" style="text;html=1;align=center;verticalAlign=middle;resizable=1;points=[];autosize=1;strokeColor=none;fillColor=none;movable=1;rotatable=1;deletable=1;editable=1;locked=0;connectable=1;" vertex="1" parent="1">
          <mxGeometry x="1395.4499999999998" y="626" width="102" height="26" as="geometry" />
        </mxCell>
        <mxCell id="YOt-EDq2CFGh9Q1SYODQ-60" value="&lt;span id=&quot;docs-internal-guid-20cc6918-7fff-7577-12aa-bc1fb561c2a0&quot;&gt;&lt;p style=&quot;line-height:1.2;margin-top:0pt;margin-bottom:0pt;&quot; dir=&quot;ltr&quot;&gt;&lt;br&gt;&lt;/p&gt;&lt;/span&gt;" style="rounded=1;whiteSpace=wrap;html=1;movable=1;resizable=1;rotatable=1;deletable=1;editable=1;locked=0;connectable=1;" vertex="1" parent="1">
          <mxGeometry x="1615.0100000000002" y="525.5" width="198.63" height="106" as="geometry" />
        </mxCell>
        <mxCell id="YOt-EDq2CFGh9Q1SYODQ-61" value="" style="ellipse;whiteSpace=wrap;html=1;fillColor=#ffe6cc;strokeColor=#d79b00;dashed=1;movable=1;resizable=1;rotatable=1;deletable=1;editable=1;locked=0;connectable=1;" vertex="1" parent="1">
          <mxGeometry x="1380.13" y="545" width="128" height="86.5" as="geometry" />
        </mxCell>
        <mxCell id="YOt-EDq2CFGh9Q1SYODQ-62" value="&lt;font face=&quot;Times New Roman&quot;&gt;&lt;span style=&quot;font-size: 18px;&quot;&gt;中文提示&lt;/span&gt;&lt;/font&gt;" style="text;html=1;align=center;verticalAlign=middle;resizable=1;points=[];autosize=1;strokeColor=none;fillColor=none;fontStyle=1;movable=1;rotatable=1;deletable=1;editable=1;locked=0;connectable=1;" vertex="1" parent="1">
          <mxGeometry x="1301.5" y="429" width="90" height="34" as="geometry" />
        </mxCell>
        <mxCell id="YOt-EDq2CFGh9Q1SYODQ-63" value="&lt;span id=&quot;docs-internal-guid-20cc6918-7fff-7577-12aa-bc1fb561c2a0&quot;&gt;&lt;p style=&quot;line-height:1.2;margin-top:0pt;margin-bottom:0pt;&quot; dir=&quot;ltr&quot;&gt;&lt;br&gt;&lt;/p&gt;&lt;/span&gt;" style="rounded=1;whiteSpace=wrap;html=1;movable=1;resizable=1;rotatable=1;deletable=1;editable=1;locked=0;connectable=1;" vertex="1" parent="1">
          <mxGeometry x="1310" y="459" width="511" height="58" as="geometry" />
        </mxCell>
        <mxCell id="YOt-EDq2CFGh9Q1SYODQ-64" value="&lt;span style=&quot;font-family: &amp;quot;Times New Roman&amp;quot;;&quot;&gt;&amp;nbsp; &amp;nbsp; &amp;nbsp; &amp;nbsp;&amp;nbsp;&lt;/span&gt;&lt;font face=&quot;Times New Roman&quot;&gt;你需要完成一个意图识别任务。我会先给定一个意图候选列表:[&quot;添加到播放列表&quot;, &quot;预订酒店&quot;, &quot;获取天气&quot;, &quot;听英语&quot;, &quot;评价书籍&quot;, &quot;搜索创意作品&quot;,&#39;搜索筛选事件&#39;],下面我会给出一些例子给你参考。最后，我会再给你一个新的英语句子，请你回答意图列表中最相关的一个意图。&lt;/font&gt;" style="text;html=1;align=left;verticalAlign=middle;whiteSpace=wrap;rounded=0;labelPosition=center;verticalLabelPosition=middle;movable=1;resizable=1;rotatable=1;deletable=1;editable=1;locked=0;connectable=1;" vertex="1" parent="1">
          <mxGeometry x="1316.9999999999998" y="468" width="504.25" height="55" as="geometry" />
        </mxCell>
        <mxCell id="YOt-EDq2CFGh9Q1SYODQ-65" style="edgeStyle=orthogonalEdgeStyle;rounded=0;orthogonalLoop=1;jettySize=auto;html=1;movable=1;resizable=1;rotatable=1;deletable=1;editable=1;locked=0;connectable=1;" edge="1" parent="1">
          <mxGeometry relative="1" as="geometry">
            <mxPoint x="1861.71" y="585" as="targetPoint" />
            <mxPoint x="1823" y="584.51" as="sourcePoint" />
          </mxGeometry>
        </mxCell>
        <mxCell id="YOt-EDq2CFGh9Q1SYODQ-66" style="edgeStyle=orthogonalEdgeStyle;rounded=0;orthogonalLoop=1;jettySize=auto;html=1;movable=1;resizable=1;rotatable=1;deletable=1;editable=1;locked=0;connectable=1;" edge="1" parent="1">
          <mxGeometry relative="1" as="geometry">
            <mxPoint x="1861.7000000000003" y="495.53" as="targetPoint" />
            <mxPoint x="1823" y="495.03999999999996" as="sourcePoint" />
          </mxGeometry>
        </mxCell>
        <mxCell id="YOt-EDq2CFGh9Q1SYODQ-67" value="&lt;font style=&quot;font-size: 18px;&quot; face=&quot;Times New Roman&quot;&gt;BGE&lt;/font&gt;" style="rounded=1;whiteSpace=wrap;html=1;fillColor=#f5f5f5;strokeColor=#666666;movable=1;resizable=1;rotatable=1;deletable=1;editable=1;locked=0;connectable=1;fontColor=#333333;" vertex="1" parent="1">
          <mxGeometry x="1310" y="531" width="38" height="114" as="geometry" />
        </mxCell>
        <mxCell id="YOt-EDq2CFGh9Q1SYODQ-68" value="&lt;span id=&quot;docs-internal-guid-20cc6918-7fff-7577-12aa-bc1fb561c2a0&quot;&gt;&lt;p style=&quot;line-height:1.2;margin-top:0pt;margin-bottom:0pt;&quot; dir=&quot;ltr&quot;&gt;&lt;br&gt;&lt;/p&gt;&lt;/span&gt;" style="rounded=1;whiteSpace=wrap;html=1;movable=1;resizable=1;rotatable=1;deletable=1;editable=1;locked=0;connectable=1;" vertex="1" parent="1">
          <mxGeometry x="1620.3400000000001" y="531" width="198.63" height="106" as="geometry" />
        </mxCell>
        <mxCell id="YOt-EDq2CFGh9Q1SYODQ-69" value="&lt;span id=&quot;docs-internal-guid-20cc6918-7fff-7577-12aa-bc1fb561c2a0&quot;&gt;&lt;p style=&quot;line-height:1.2;margin-top:0pt;margin-bottom:0pt;&quot; dir=&quot;ltr&quot;&gt;&lt;br&gt;&lt;/p&gt;&lt;/span&gt;" style="rounded=1;whiteSpace=wrap;html=1;movable=1;resizable=1;rotatable=1;deletable=1;editable=1;locked=0;connectable=1;" vertex="1" parent="1">
          <mxGeometry x="1626.4900000000002" y="538.01" width="198.63" height="106" as="geometry" />
        </mxCell>
        <mxCell id="YOt-EDq2CFGh9Q1SYODQ-70" value="&lt;span style=&quot;color: rgba(0, 0, 0, 0); font-family: monospace; font-size: 0px; text-align: start; text-wrap: nowrap;&quot;&gt;%3CmxGraphModel%3E%3Croot%3E%3CmxCell%20id%3D%220%22%2F%3E%3CmxCell%20id%3D%221%22%20parent%3D%220%22%2F%3E%3CmxCell%20id%3D%222%22%20value%3D%22%22%20style%3D%22ellipse%3BwhiteSpace%3Dwrap%3Bhtml%3D1%3BfillColor%3Dnone%3Bdashed%3D1%3Bopacity%3D61%3BstrokeWidth%3D2%3Bshadow%3D0%3B%22%20vertex%3D%221%22%20parent%3D%221%22%3E%3CmxGeometry%20x%3D%223001.63%22%20y%3D%22498.75%22%20width%3D%2274.75%22%20height%3D%2258.25%22%20as%3D%22geometry%22%2F%3E%3C%2FmxCell%3E%3C%2Froot%3E%3C%2FmxGraphModel%3E&lt;/span&gt;" style="ellipse;whiteSpace=wrap;html=1;fillColor=none;dashed=1;opacity=61;strokeWidth=2;shadow=0;movable=1;resizable=1;rotatable=1;deletable=1;editable=1;locked=0;connectable=1;" vertex="1" parent="1">
          <mxGeometry x="1406.9499999999998" y="561.0699999999999" width="58.38" height="53.62" as="geometry" />
        </mxCell>
        <mxCell id="YOt-EDq2CFGh9Q1SYODQ-71" value="" style="shape=waypoint;sketch=0;fillStyle=solid;size=6;pointerEvents=1;points=[];fillColor=#fff2cc;resizable=1;rotatable=1;perimeter=centerPerimeter;snapToPoint=1;strokeColor=#d6b656;movable=1;deletable=1;editable=1;locked=0;connectable=1;" vertex="1" parent="1">
          <mxGeometry x="1507.08" y="537" width="18.92" height="19" as="geometry" />
        </mxCell>
        <mxCell id="YOt-EDq2CFGh9Q1SYODQ-72" value="" style="whiteSpace=wrap;html=1;fillColor=#dae8fc;strokeColor=#6c8ebf;movable=1;resizable=1;rotatable=1;deletable=1;editable=1;locked=0;connectable=1;" vertex="1" parent="1">
          <mxGeometry x="1431" y="579.3799999999999" width="14" height="13" as="geometry" />
        </mxCell>
        <mxCell id="YOt-EDq2CFGh9Q1SYODQ-73" value="" style="shape=waypoint;sketch=0;fillStyle=solid;size=6;pointerEvents=1;points=[];fillColor=#fff2cc;resizable=1;rotatable=1;perimeter=centerPerimeter;snapToPoint=1;strokeColor=#d6b656;movable=1;deletable=1;editable=1;locked=0;connectable=1;" vertex="1" parent="1">
          <mxGeometry x="1473.3199999999997" y="554.3799999999999" width="20" height="20" as="geometry" />
        </mxCell>
        <mxCell id="YOt-EDq2CFGh9Q1SYODQ-74" value="" style="shape=waypoint;sketch=0;fillStyle=solid;size=6;pointerEvents=1;points=[];fillColor=#fff2cc;resizable=1;rotatable=1;perimeter=centerPerimeter;snapToPoint=1;strokeColor=#d6b656;movable=1;deletable=1;editable=1;locked=0;connectable=1;" vertex="1" parent="1">
          <mxGeometry x="1479.9499999999998" y="570.3799999999999" width="20" height="20" as="geometry" />
        </mxCell>
        <mxCell id="YOt-EDq2CFGh9Q1SYODQ-75" value="" style="shape=waypoint;sketch=0;fillStyle=solid;size=6;pointerEvents=1;points=[];fillColor=#fff2cc;resizable=1;rotatable=1;perimeter=centerPerimeter;snapToPoint=1;strokeColor=#d6b656;movable=1;deletable=1;editable=1;locked=0;connectable=1;" vertex="1" parent="1">
          <mxGeometry x="1479.9499999999998" y="590.3799999999999" width="20" height="20" as="geometry" />
        </mxCell>
        <mxCell id="YOt-EDq2CFGh9Q1SYODQ-76" value="" style="shape=waypoint;sketch=0;fillStyle=solid;size=6;pointerEvents=1;points=[];fillColor=#fff2cc;resizable=1;rotatable=1;perimeter=centerPerimeter;snapToPoint=1;strokeColor=#d6b656;movable=1;deletable=1;editable=1;locked=0;connectable=1;" vertex="1" parent="1">
          <mxGeometry x="1472.4499999999998" y="601.3799999999999" width="20" height="20" as="geometry" />
        </mxCell>
        <mxCell id="YOt-EDq2CFGh9Q1SYODQ-77" value="" style="shape=waypoint;sketch=0;fillStyle=solid;size=6;pointerEvents=1;points=[];fillColor=#fff2cc;resizable=1;rotatable=1;perimeter=centerPerimeter;snapToPoint=1;strokeColor=#d6b656;movable=1;deletable=1;editable=1;locked=0;connectable=1;" vertex="1" parent="1">
          <mxGeometry x="1459.9499999999998" y="612.3799999999999" width="20" height="20" as="geometry" />
        </mxCell>
        <mxCell id="YOt-EDq2CFGh9Q1SYODQ-78" value="" style="shape=waypoint;sketch=0;fillStyle=solid;size=6;pointerEvents=1;points=[];fillColor=#fff2cc;resizable=1;rotatable=1;perimeter=centerPerimeter;snapToPoint=1;strokeColor=#d6b656;movable=1;deletable=1;editable=1;locked=0;connectable=1;" vertex="1" parent="1">
          <mxGeometry x="1430.4499999999998" y="611.5" width="20" height="20" as="geometry" />
        </mxCell>
        <mxCell id="YOt-EDq2CFGh9Q1SYODQ-79" value="" style="shape=waypoint;sketch=0;fillStyle=solid;size=6;pointerEvents=1;points=[];fillColor=#fff2cc;resizable=1;rotatable=1;perimeter=centerPerimeter;snapToPoint=1;strokeColor=#d6b656;movable=1;deletable=1;editable=1;locked=0;connectable=1;" vertex="1" parent="1">
          <mxGeometry x="1416.75" y="614.3799999999999" width="20" height="20" as="geometry" />
        </mxCell>
        <mxCell id="YOt-EDq2CFGh9Q1SYODQ-80" value="" style="shape=waypoint;sketch=0;fillStyle=solid;size=6;pointerEvents=1;points=[];fillColor=#fff2cc;resizable=1;rotatable=1;perimeter=centerPerimeter;snapToPoint=1;strokeColor=#d6b656;movable=1;deletable=1;editable=1;locked=0;connectable=1;" vertex="1" parent="1">
          <mxGeometry x="1391.5" y="597.3799999999999" width="20" height="20" as="geometry" />
        </mxCell>
        <mxCell id="YOt-EDq2CFGh9Q1SYODQ-81" value="" style="shape=waypoint;sketch=0;fillStyle=solid;size=6;pointerEvents=1;points=[];fillColor=#fff2cc;resizable=1;rotatable=1;perimeter=centerPerimeter;snapToPoint=1;strokeColor=#d6b656;movable=1;deletable=1;editable=1;locked=0;connectable=1;" vertex="1" parent="1">
          <mxGeometry x="1388" y="571.51" width="20" height="20" as="geometry" />
        </mxCell>
        <mxCell id="YOt-EDq2CFGh9Q1SYODQ-82" value="" style="shape=waypoint;sketch=0;fillStyle=solid;size=6;pointerEvents=1;points=[];fillColor=#fff2cc;resizable=1;rotatable=1;perimeter=centerPerimeter;snapToPoint=1;strokeColor=#d6b656;movable=1;deletable=1;editable=1;locked=0;connectable=1;" vertex="1" parent="1">
          <mxGeometry x="1405.9499999999998" y="544.8799999999999" width="20" height="20" as="geometry" />
        </mxCell>
        <mxCell id="YOt-EDq2CFGh9Q1SYODQ-83" value="" style="shape=waypoint;sketch=0;fillStyle=solid;size=6;pointerEvents=1;points=[];fillColor=#fff2cc;resizable=1;rotatable=1;perimeter=centerPerimeter;snapToPoint=1;strokeColor=#d6b656;movable=1;deletable=1;editable=1;locked=0;connectable=1;" vertex="1" parent="1">
          <mxGeometry x="1453.3199999999997" y="547.3799999999999" width="20" height="20" as="geometry" />
        </mxCell>
        <mxCell id="YOt-EDq2CFGh9Q1SYODQ-84" value="" style="shape=waypoint;sketch=0;fillStyle=solid;size=6;pointerEvents=1;points=[];fillColor=#fff2cc;resizable=1;rotatable=1;perimeter=centerPerimeter;snapToPoint=1;strokeColor=#d6b656;movable=1;deletable=1;editable=1;locked=0;connectable=1;" vertex="1" parent="1">
          <mxGeometry x="1457.9499999999998" y="557.3799999999999" width="20" height="20" as="geometry" />
        </mxCell>
        <mxCell id="YOt-EDq2CFGh9Q1SYODQ-85" value="" style="shape=waypoint;sketch=0;fillStyle=solid;size=6;pointerEvents=1;points=[];fillColor=#fff2cc;resizable=1;rotatable=1;perimeter=centerPerimeter;snapToPoint=1;strokeColor=#d6b656;movable=1;deletable=1;editable=1;locked=0;connectable=1;" vertex="1" parent="1">
          <mxGeometry x="1467.9499999999998" y="567.3799999999999" width="20" height="20" as="geometry" />
        </mxCell>
        <mxCell id="YOt-EDq2CFGh9Q1SYODQ-86" value="" style="shape=waypoint;sketch=0;fillStyle=solid;size=6;pointerEvents=1;points=[];fillColor=#fff2cc;resizable=1;rotatable=1;perimeter=centerPerimeter;snapToPoint=1;strokeColor=#d6b656;movable=1;deletable=1;editable=1;locked=0;connectable=1;" vertex="1" parent="1">
          <mxGeometry x="1477.9499999999998" y="577.3799999999999" width="20" height="20" as="geometry" />
        </mxCell>
        <mxCell id="YOt-EDq2CFGh9Q1SYODQ-87" value="" style="shape=waypoint;sketch=0;fillStyle=solid;size=6;pointerEvents=1;points=[];fillColor=#fff2cc;resizable=1;rotatable=1;perimeter=centerPerimeter;snapToPoint=1;strokeColor=#d6b656;movable=1;deletable=1;editable=1;locked=0;connectable=1;" vertex="1" parent="1">
          <mxGeometry x="1467.9499999999998" y="592.3799999999999" width="20" height="20" as="geometry" />
        </mxCell>
        <mxCell id="YOt-EDq2CFGh9Q1SYODQ-88" value="" style="shape=waypoint;sketch=0;fillStyle=solid;size=6;pointerEvents=1;points=[];fillColor=#b1ddf0;resizable=1;rotatable=1;perimeter=centerPerimeter;snapToPoint=1;strokeColor=#10739e;movable=1;deletable=1;editable=1;locked=0;connectable=1;" vertex="1" parent="1">
          <mxGeometry x="1507.0799999999995" y="551.51" width="20" height="20" as="geometry" />
        </mxCell>
        <mxCell id="YOt-EDq2CFGh9Q1SYODQ-89" value="&lt;font style=&quot;font-weight: normal;&quot; face=&quot;Times New Roman&quot;&gt;:前k条 样本&lt;/font&gt;" style="text;html=1;align=center;verticalAlign=middle;resizable=1;points=[];autosize=1;strokeColor=none;fillColor=none;fontStyle=1;movable=1;rotatable=1;deletable=1;editable=1;locked=0;connectable=1;" vertex="1" parent="1">
          <mxGeometry x="1517.08" y="546.51" width="78" height="26" as="geometry" />
        </mxCell>
        <mxCell id="YOt-EDq2CFGh9Q1SYODQ-90" value="&lt;font style=&quot;font-weight: normal;&quot; face=&quot;Times New Roman&quot;&gt;:训练样本&lt;/font&gt;" style="text;html=1;align=center;verticalAlign=middle;resizable=1;points=[];autosize=1;strokeColor=none;fillColor=none;fontStyle=1;movable=1;rotatable=1;deletable=1;editable=1;locked=0;connectable=1;" vertex="1" parent="1">
          <mxGeometry x="1519.7999999999997" y="532.02" width="69" height="26" as="geometry" />
        </mxCell>
        <mxCell id="YOt-EDq2CFGh9Q1SYODQ-91" value="" style="shape=waypoint;sketch=0;fillStyle=solid;size=6;pointerEvents=1;points=[];fillColor=#fff2cc;resizable=1;rotatable=1;perimeter=centerPerimeter;snapToPoint=1;strokeColor=#d6b656;movable=1;deletable=1;editable=1;locked=0;connectable=1;" vertex="1" parent="1">
          <mxGeometry x="1457.9499999999998" y="600.3799999999999" width="20" height="20" as="geometry" />
        </mxCell>
        <mxCell id="YOt-EDq2CFGh9Q1SYODQ-92" value="" style="shape=waypoint;sketch=0;fillStyle=solid;size=6;pointerEvents=1;points=[];fillColor=#fff2cc;resizable=1;rotatable=1;perimeter=centerPerimeter;snapToPoint=1;strokeColor=#d6b656;movable=1;deletable=1;editable=1;locked=0;connectable=1;" vertex="1" parent="1">
          <mxGeometry x="1445.33" y="606" width="20" height="20" as="geometry" />
        </mxCell>
        <mxCell id="YOt-EDq2CFGh9Q1SYODQ-93" value="" style="shape=waypoint;sketch=0;fillStyle=solid;size=6;pointerEvents=1;points=[];fillColor=#b1ddf0;resizable=1;rotatable=1;perimeter=centerPerimeter;snapToPoint=1;strokeColor=#10739e;movable=1;deletable=1;editable=1;locked=0;connectable=1;" vertex="1" parent="1">
          <mxGeometry x="1446.9199999999992" y="575.8799999999999" width="20" height="20" as="geometry" />
        </mxCell>
        <mxCell id="YOt-EDq2CFGh9Q1SYODQ-94" value="" style="shape=waypoint;sketch=0;fillStyle=solid;size=6;pointerEvents=1;points=[];fillColor=#b1ddf0;resizable=1;rotatable=1;perimeter=centerPerimeter;snapToPoint=1;strokeColor=#10739e;movable=1;deletable=1;editable=1;locked=0;connectable=1;" vertex="1" parent="1">
          <mxGeometry x="1433.9699999999998" y="592" width="12.95" height="18.01" as="geometry" />
        </mxCell>
        <mxCell id="YOt-EDq2CFGh9Q1SYODQ-95" value="" style="shape=waypoint;sketch=0;fillStyle=solid;size=6;pointerEvents=1;points=[];fillColor=#b1ddf0;resizable=1;rotatable=1;perimeter=centerPerimeter;snapToPoint=1;strokeColor=#10739e;movable=1;deletable=1;editable=1;locked=0;connectable=1;" vertex="1" parent="1">
          <mxGeometry x="1439.9499999999994" y="564.51" width="20" height="20" as="geometry" />
        </mxCell>
        <mxCell id="YOt-EDq2CFGh9Q1SYODQ-96" value="" style="shape=waypoint;sketch=0;fillStyle=solid;size=6;pointerEvents=1;points=[];fillColor=#b1ddf0;resizable=1;rotatable=1;perimeter=centerPerimeter;snapToPoint=1;strokeColor=#10739e;movable=1;deletable=1;editable=1;locked=0;connectable=1;" vertex="1" parent="1">
          <mxGeometry x="1419.9499999999994" y="561.3799999999999" width="20" height="20" as="geometry" />
        </mxCell>
        <mxCell id="YOt-EDq2CFGh9Q1SYODQ-97" value="" style="shape=waypoint;sketch=0;fillStyle=solid;size=6;pointerEvents=1;points=[];fillColor=#b1ddf0;resizable=1;rotatable=1;perimeter=centerPerimeter;snapToPoint=1;strokeColor=#10739e;movable=1;deletable=1;editable=1;locked=0;connectable=1;" vertex="1" parent="1">
          <mxGeometry x="1411.4999999999995" y="590.3799999999999" width="20" height="20" as="geometry" />
        </mxCell>
        <mxCell id="YOt-EDq2CFGh9Q1SYODQ-98" value="" style="shape=waypoint;sketch=0;fillStyle=solid;size=6;pointerEvents=1;points=[];fillColor=#fff2cc;resizable=1;rotatable=1;perimeter=centerPerimeter;snapToPoint=1;strokeColor=#d6b656;movable=1;deletable=1;editable=1;locked=0;connectable=1;" vertex="1" parent="1">
          <mxGeometry x="1430.4499999999998" y="544.51" width="20" height="20" as="geometry" />
        </mxCell>
        <mxCell id="YOt-EDq2CFGh9Q1SYODQ-99" style="edgeStyle=orthogonalEdgeStyle;rounded=0;orthogonalLoop=1;jettySize=auto;html=1;movable=1;resizable=1;rotatable=1;deletable=1;editable=1;locked=0;connectable=1;" edge="1" parent="1">
          <mxGeometry relative="1" as="geometry">
            <mxPoint x="1428.63" y="586.22" as="targetPoint" />
            <mxPoint x="1349.5300000000002" y="586.71" as="sourcePoint" />
            <Array as="points">
              <mxPoint x="1402.63" y="586.22" />
            </Array>
          </mxGeometry>
        </mxCell>
        <mxCell id="YOt-EDq2CFGh9Q1SYODQ-100" style="edgeStyle=orthogonalEdgeStyle;rounded=0;orthogonalLoop=1;jettySize=auto;html=1;movable=1;resizable=1;rotatable=1;deletable=1;editable=1;locked=0;connectable=1;" edge="1" parent="1">
          <mxGeometry relative="1" as="geometry">
            <mxPoint x="1609" y="586" as="targetPoint" />
            <mxPoint x="1459.9500000000003" y="586.0799999999999" as="sourcePoint" />
            <Array as="points">
              <mxPoint x="1513.0500000000002" y="585.5899999999999" />
            </Array>
          </mxGeometry>
        </mxCell>
        <mxCell id="YOt-EDq2CFGh9Q1SYODQ-101" value="&lt;span id=&quot;docs-internal-guid-4864de80-7fff-dd73-9c33-bcbfd112151c&quot;&gt;&lt;font face=&quot;Times New Roman&quot;&gt;&lt;p style=&quot;font-size: 16px; text-align: left; line-height: 1.2; margin-top: 0pt; margin-bottom: 0pt;&quot; dir=&quot;ltr&quot;&gt;&lt;span style=&quot;background-color: transparent; white-space-collapse: preserve; font-weight: 700; font-variant-numeric: normal; font-variant-east-asian: normal; font-variant-alternates: normal; font-variant-position: normal; vertical-align: baseline;&quot;&gt;Query&lt;/span&gt;&lt;span style=&quot;background-color: transparent; font-variant-numeric: normal; font-variant-east-asian: normal; font-variant-alternates: normal; font-variant-position: normal; vertical-align: baseline;&quot;&gt;&lt;span style=&quot;white-space-collapse: preserve;&quot;&gt;:&lt;/span&gt;&lt;/span&gt;&lt;br&gt;&lt;/p&gt;&lt;p style=&quot;text-align: left; line-height: 1.2; margin-top: 0pt; margin-bottom: 0pt;&quot; dir=&quot;ltr&quot;&gt;&lt;span style=&quot;background-color: transparent; font-variant-numeric: normal; font-variant-east-asian: normal; font-variant-alternates: normal; font-variant-position: normal; vertical-align: baseline;&quot;&gt;&lt;span style=&quot;background-color: initial; text-align: center; font-size: 16px; white-space-collapse: preserve;&quot;&gt;播放 JOHN BONHAM 1971 年的作品&lt;/span&gt;&lt;/span&gt;&lt;/p&gt;&lt;p style=&quot;text-align: left; line-height: 1.2; margin-top: 0pt; margin-bottom: 0pt;&quot; dir=&quot;ltr&quot;&gt;&lt;span style=&quot;background-color: transparent; font-variant-numeric: normal; font-variant-east-asian: normal; font-variant-alternates: normal; font-variant-position: normal; vertical-align: baseline;&quot;&gt;&lt;span style=&quot;font-size: 16px; white-space-collapse: preserve;&quot;&gt;&lt;b&gt;Intent&lt;/b&gt;&lt;/span&gt;&lt;/span&gt;&lt;span style=&quot;font-size: 16px; background-color: transparent; white-space-collapse: preserve; font-variant-numeric: normal; font-variant-east-asian: normal; font-variant-alternates: normal; font-variant-position: normal; vertical-align: baseline;&quot;&gt;:&lt;/span&gt;&lt;br&gt;&lt;/p&gt;&lt;p style=&quot;font-size: 16px; text-align: left; line-height: 1.2; margin-top: 0pt; margin-bottom: 0pt;&quot; dir=&quot;ltr&quot;&gt;听音乐&lt;/p&gt;&lt;/font&gt;&lt;/span&gt;" style="text;html=1;align=center;verticalAlign=middle;whiteSpace=wrap;rounded=0;movable=1;resizable=1;rotatable=1;deletable=1;editable=1;locked=0;connectable=1;" vertex="1" parent="1">
          <mxGeometry x="1632" y="539.12" width="191" height="101.49" as="geometry" />
        </mxCell>
        <mxCell id="YOt-EDq2CFGh9Q1SYODQ-102" value="&lt;font face=&quot;Times New Roman&quot;&gt;任务介绍:&lt;/font&gt;" style="text;html=1;align=center;verticalAlign=middle;resizable=1;points=[];autosize=1;strokeColor=none;fillColor=none;fontStyle=1;movable=1;rotatable=1;deletable=1;editable=1;locked=0;connectable=1;" vertex="1" parent="1">
          <mxGeometry x="1327.5" y="454" width="39.5" height="26" as="geometry" />
        </mxCell>
        <mxCell id="YOt-EDq2CFGh9Q1SYODQ-103" value="" style="shape=image;verticalLabelPosition=bottom;labelBackgroundColor=default;verticalAlign=top;aspect=fixed;imageAspect=0;image=data:image/png,iVBORw0KGgoAAAANSUhEUgAAAMgAAADICAYAAACtWK6eAAAAAXNSR0IArs4c6QAAIABJREFUeF7tXXmAHGWV/72amQTCoQjIeiCiuwIiSEBgQ5LpTsIRVCSQ2N0Jxy4rgoCiHOEyQLgDAoqgArqoGJKuJhk2XEo4pnpCBJQE4solrIDHCgIqZ0Jmut72V+nJTiYz0++r/qqrauarf+aPee997/u9+nV953sE+1gELAKDIkAWG4uARWBwBCxB7NthERgCAUsQ+3pYBCxB7DtgEQiHgP2ChMPNao0QBCxBRkigbTfDIWAJEg43qzVCELAEGSGBtt0Mh4AlSDjcrNYIQcASZIQE2nYzHAKWIOFws1ojBAFLkBESaNvNcAhYgoTDzWqNEAQsQUZIoG03wyFgCRION6s1QhCwBBkhgbbdDIeAJUg43KzWCEHAEmSEBNp2MxwCliDhcLNaIwQBS5AREmjbzXAIWIJo4pYt8lcBTANhCjPeAOFpAMW3xuCGFYfQO5rmrHjCEbAEEQbowJt5s7WjsRjAQYOoPNdSwYT7Z9HLQpNWLAUIWIIIg5Qp8veJcEId8cdHvYsJS4+mt4VmmyY2eTHv4PfgYAAtIKzycvRg0xpPcUOWIILgTVzEu7dUsEogqkTu8fI0VSgbudj4JbxF62pcR4SjN2iMUVzdg+MfOZLeiNyJFDdgCSIIXsblUwi4WiC6ToTxI69AXxbLRyQ4aRHv6ldwNwEfGagJZjxVqWD8g0fQ3yNyIfVmLUEEIcwU+QYiHCcQXS/CwDfLebpUR8ekbHuJJzs+bgdhs6HsMlAq5ylvsu3hZMsSRBDNrMtzqmP3iwSiG4owjvQKdIu2XoMK7UU+2iH8VMPMAV6e7tOQHzGiliCCULe7nHMAVyC64TCf0Q3GlPJMWqarG1Y+6/Lc6iDvfB19Bq4t5+lkHZ2RImsJIoj0XnfwmM3fwcME7CYQ70+SN5xW7Nc5g57Q1dWVzxT5pxtNxiVGGEu8Ak2TiI40GUsQYcSzC/mjcPAogK2FKv8/H2H8sdXH3lHtkWRLvDkzlhAwWde3mvzFXp7ODak7rNUsQTTC276Ixzo9WFZv4juQSQb++60x+FfTu+3jF/IHWx3cS8AnNbrSl7w+t2Lnrhn0bBj94a5jCaIZ4UkLeQo7uCfYcNN/7vOequ7EzyVfX3VjjfYS7+b4uBeE7cLaY+Cmcp6+FFZ/uOtZgoSIcLbEX1J7HSFUYeqFzJT4AGJ0ANg8jB+BDmNVq4PMfTl6PbSNYa5oCRIywNkiXwzCN8OoM3BeOU/6y8a1xjIlPooYPw75Fet1uQzC570cvRWmDyNFJ7UEmXALb9XaipPBmAhCKxgvAXgYq3G9dwytaUYAM0W+mQhHhWzrKC9P83V1My5fSsDZunr95H/q5enfG7QxItRTSZDaRtg1AN67UZQYL1YcfHZZjp5sRgSzLt8LYP8wbfmEKV05ekCqm3F5AQEzpfIDyTFwUTlP5zViQ0d3Yon3cRjTwNgDwAuOg7s6c3SXjo04ZVNHkHaX2x2gXAe011rasNP9h9NrUYO773zectNWLAfhU7ptqfskBIz3CvTboXT3L/F7ehhLAGR029hAnnCMl6OfNGRDqDyuxJuO8vEjIszqr8KMP5KDL3g5elxoLjax1BEk4/IvCRhXFzHGNV6BvlFXzoDA5BJ/yGc8AuBDIcz9udKKvZdNp78MpNu+kLd3CEtB2DmE7V6Vt3zG9K4CLW3AhpZqxuX7h9qXYeBvzJjQVaCntAw3WThVBJnSwVtXuvGqBCNm/L1coPdJZE3ITCzxJx0fDxFhS117zPgNORjff8Ks9l2ogl8Q8H5dm33kX6q04KBlM+g3DdjQUhV+5ZXNxV6eZmgZb7JwqghS+6X+kxijFuzizSB1JbYpT3CClnF/mMaYsbRcoPW3FTNFPpiAW8NsSq5vn/G0zziwayb9MYxPYXUyRV5MhMMl+g7hww/k6M8S2ThkUkWQ2rVX8bKkTziiK0cLmgls1uUjAfwsVJuMO0FYAcYaEC4LZaNXieG1OpjW7D0ONfcY7eNvIGwi8t/HJG8meSLZGIRSRRCFT8blvxKwrQQrBr5dztOpElmTMhmXzyYgtrsgYNziFUgRtelPpsSH1TYwZW0zDvEKdKdMuPlS6SNIke8mCu5W130Y6CrnqbGVn7qtDCyQLfIPQTg2pHpoNQYuLecp1AZm6Eb7KGZdVl9PMTmJsHNnjp4x0XYUNlJHEJ0dbAZWl/M0Jgrg6tqcy052l+DMVqg9krr2+wkwQ53vOrZcILXDHs8zl53MLvgHAVuIHGC86BXooyLZmIRSRxDdT7jP+GRcS4nBPZK3sYwIe0YZXwbeIcJ0L0e/iLKderazJZ4Kxs/ryfX+nxlXlwt0mlQ+DrnUEWR8iT/SxnhRA6xQRzo07A8pGixNr8UKEHYwZbOvHQZecRgHdBZImnUlCjcCmxmXbyRAnKyCgAmdeVoemUMGDKeOIKrPWZf/AeA9wv5/x8vTKULZSMQmF/njFeDXRNjKcAPPdBMOXJ6jPxi2G8pcxuXXCJDuPb3m5WmbUA01USmtBFFDicEyHG4AHzOWlQvU3kRMB2xq0kLe13fQVV3dGmXCFwYeWtONqUnJa6WxOdjb/Ru8PH3FBBZR2kglQTIuX0LAORJgYp2o93Mw6/I0BjoIaAh3Ztz6ioMjn8zRWgkGzZDJuHwNAeLEDz7joGYefQmLQUOBCttoo3rtRT7coSBPruiJc6Le38FMkU8lwlUixwcWutzL01kN6EeimnVZnSX7J4lxdUiz/HR1uGnoZqWkzbAyqSRILc/sCxqdjnWiPgBJ9BPRMXwinOTl6XqNfjdFNFPkvYnwK43G5nt5CnuPRqOZxkVTSRDV7bRN1PuGqpYh5Xlx+NTREweHxb2MO5i/2SJfBoL4q1Y7WayuCyf+SS1BMkW+hwgHShBOykS911ddgpCP/TtnUqhDkBJ8GpXJFvk5ED4ussNY8+Zm2Np0dhdR2yGEUksQnV+tJE3Ug6/fuhxb8i+Ijx29maQzpAzxKoRTUQmyuYIhL3z1tczAbeU8iU76hvPIrFZ6CVLiGWDcKoUjSRP14USQjMvnEnChNA5MOLqco3CnnaWNGJRLLUHaS7yjw/i9BhaJmagPJ4JkXX4MCO6bS55K9ybYavmh9KZEOAkyqSVImifqw4Ugusd+GLi3nCfRvDEJ5FA+pJ0g4owiSZqoDxeCZF1WBw2v1HiZT0jiMvVQ/qedIPMAnCkJUJIm6sOFIJkiLyfCfkL8eS1hm4dy9DeJfFJkUk2QTJG/SISSFMykTNSHA0GmLODtelrwF+mxGWb8slyg8dJYJUUu1QSZsIg/1lrB/2iAmYiJuvZJgAQu82aKfAIRvq+B/elenho5YqPRlDnRVBMkrRP14UAQ3YyS3YQdknIsX4c+6SdIke8DYYqk00mZqKedIKpgDxjqTo6sBARjlVcg6VKwJJRNk0k9QTIuX07AGRLEkjJRTz1BXP43AOIUpsw4v1wg8WaiJJbNkkk9QXQLbCZhop52gmRcVuXeviB9SX3C7l05+m+pfJLkUk8QdZ3VJzynAWrsE/U0EyT7Y96Ex+B18c3IFGQuGbb7IKpjwUpWD56QZvKLK5lc3yBkF/OH0QN5OtCErGJNKvFe7GOuKryj8YOUyAteUv9T9QVRCaJbfIwFYQ8G9iJg7IA1Qobu/TNoxf7edJLn+JWiKZQLMrY7kCdaiJkgExfzB5xuzAtTYpqAGZ15Et/+FELYNLFEEiTbya30Mnb1gT0J2BOEsUEBFsJmJpBRk3UCrnhzDK6I415CWoZYB9/No1e/gdNrl6FC10IMstcTOqpzkY60zUViJ4ga09Im+DQ7GMu9hEBQjGa0CTLUsfGnaqLos7wC3dKEttY3oXvIDzF8QYJTCsAVIJjOfPicSlzh+OjonEmqpkqin6YSZPwS3qJlDcY6jD0ZGFv7OuwiXk+PCkrGIxXgxGUFWhlVE33tJpkgExfx7i2VYIe8GcdC/gzGbUzoeD+h69YcVZqBv04bkRFEpd3c4h3sB8Zngi+DGiYB/6zjXAyy8yutOGOwak+m/EniHESdrao4mAdCLMU9VcGjaorW24lwa5JqGBoniBoyYVOc1ui41dTLqG2H8XZ1RWwe3sGVUVXLTdIXpDbPOIUJ54iTTmuDqqfAwJvEuFvNWTZ5F3ctPZre1rNgTto8QVxW12ATXVZLAh8DfyDCGV6OXIm8jkxSCKLyixHhSgJ21PG/qbKMNUy4V03ye7qx5MEj6O/NbN8oQdqLfKBDQcr/4fOo+UkrjjNZ4y9uggTL5YwbmzTPMPku9IBRDrJTOujwcvSSSeMD2TJKEJ1UPFF3zLh9xk/g4GwTQYlrDjKxxNu2+Lg0jsI+xuMBQN0xqW4BLCHCzSbiEilBgrnHGKyOAoik2FR1OABcXM5TQ/UD4yCISnlafafOD1OFNyn4D+rHupqO1496F3NMz1eMfUHGL+QPtjmIpVqpqq5EwO8YUMu0K4ixsnsMVrSuxlFEQUqarU0GmYHnHWB22B3iZg6xVMJsMK4UJ3aTA/V6dXn+opYK5vc4+CwIqjbhAdIjP/Jm5JLqi0IODupfTltuYWNJYwRRprMud1d/YVsbcUigWwHjqYAMhBVEWDlqDR4b7Jdj/xK/p8fHBSCcFIFvyyuE45bl6EmB3+tFmvEFqc0z1H6G6RqNaq/iR6hgjjeLNqhZr6oQd4/GVAamAcF5rffq4GJC1nSNRrMEKXIRhLyJjvax8TgzHqser17JDlbQ23gszPLrhCJ/ooVwHQEHGPYPYPyo4uCcZTl6RWI7ysOK2QW8DRyoXLnmC4gyVLnmr3kFEmVSzLq8f/WYiVopU0fjPyTBplEZtfpYzpOxal5GCaJewlZC+IqljEeZamRgrCgX6NeNAtZff1KJP+f7uJoInzBpW6X0r6ZRuqBcoKvr2Y2KILXSCudpVN+q52rwf2b83gFO7SzQEpHCAEKqgBBT8GWZBsLOYe1I9Lw8GXuvjRnqdTzj8iRi3FH3YCHjETVMUl+GCrCyWcc8+vh5cjUjxwWmhwGSl8k0QRTp2cc1pucZOqSXvLi9MpNKvJOvviyMQ0HYV0dXIptogqgOqPGvw/gGGBkQtg+GR4oMhJXk47EkFJxUfgYFNrtxMQDjpcAY6CTGyQMNR0wRpDbPuCaSUtOMn1QcnCEdNkpe3IFk1OJO67ovy6HSbP1DtsV4wiuQOuxq5DH+BTHiVZONRDmhZcaNax3M6ZswrdFJ+rgSv28U4yICjo/goOfySgtONLkxKg1nbUHl81hHmKnVrI3aR+wZOLWcp29L26wnZwnSB6Gojl4EQxXC3N7ANfIFybh8ChhzTe9nRHm0pt5LONj/My4fUhuGKcLUXapnxh/XOtjpoRwZ24+zBBkgOlFtqjHjWcfBKdyCVbpXbqkFu0ayuGBo8zMsCaR6tSq6h4GDSf5Gd1QY+KtPmKS75F6vfUuQQRBSxzIcxjwC/qMeiLr/VyWcCRgn1mM8EsVklhk/JgfnRHVMQ9w/TcFsifcAYwoYExnB6etHR7+LG03voiu3LEHqBKfJF4g0X5XQ4rHNM0J7HJOiJYgQ+AivoAo9MCDGeNEnnNGVJ3HCbwOtptqEJYhG+NYnMQDOrrvPo2E3clF1CQy4DKtxVZhTCJH7l+AGLEFCBKc3DQ4IR0nT/4dopmEVVodgGD/z23BW1NeIG3Y2oQYsQRoIzMQi79kCfD+KCXQDbq1TbXIiiob9TagBSxADgWkv8SyHcXn1lOuHDZhryITaCwDhzHKeFjZkyCoHCFiCGHoRahfGzqpeqjqDgE0NmRWbCS5zMS6n1bjCzjPEsNUVtASpC5GegNol5x5cQcBMPc1w0mqeQYwFlTbMtvOMcBgOpWUJYh7TwOLEEu/TwkECtr0iakKZXVFhHNfsk9AR9idxpi1BogwJM2VLOJqBywj4gMGm1NXms7wcbgERG7RrTfVDwBKkCa+Euor67mh8kwCVOCF0zmGVdBuMb721GS6PI+l2E6BKXBOWIE0MSS2ru6r0Ol27WUYRbZgdZ9kGbZ+HgYIlSBOD2CBBXKcNZz4wnV5sossjvilLkCa8AiqrfesazCHg640MsaqlGlQazm+PfheXRHFytQlQpK4JS5AoQzaXnezO+DITLiTg/caaYrwMYI73NG7CXPKN2bWGNkLAEiSil6K9xJMdH98FYdeImlDHSZ7wCSd25akrsjZGuGFLEMMvQPsi/henB1drFrpsyItq/ZXbuQWnd82gZxsyZJXtFySqd6A3g2P16ueJRGiLqp3B7DKjG4Tr2ggX3JcjlRbUPgYQsF+QBkFUBUf5ZZygkjIQ8L4GzZlQf00lddjWwQ+SWNLMRAebacMSpAG0awnbVGLoSDMFhnKR8bRPOK0rT3eH0rdKAQKWICFeBJUZkH18D4QpIdSbq8K4nxyc1Jmj8Clhm+txolqzBNEIR5AYugUXAfhyBAnbNDzRFlUZ2X+ICs7tn5Fd29IIU7AEEQR8rxu4bYv3Bpt8c0wnhhY0b1LkdWZc8tbr+M6K40mVqrBPHQQsQeoAlCnxYeTjW6YTQ8f5ZqoE29V8UrO7CtQRpx9paNsSZJAoTSryp5mgEkObLkCjWnwQwASNF+RhAP+qIS8VLRPj60lJJi5xunYhTWWGn6y+5gz8r0qK/uYY/CCKE86WIP2isl8Hv79tLeYR4RhJwDRlnmHC16iCZ+HgebGujx19wiccwncB7CTWEwqqDIt+G76Z1BuJ7SXezWEcWivGM3agbqnUo04LJnfOoCeE3RaJWYLUYFJ3ynkMTlHzDALGiNCTC70WnJ3K0/VKJbuQP6pLEG8mvRDouqxKNaiSDXWTOcvdU6dWggKsl9E7+FYS7rRPcnm8r+qHANOrVWw/JumLSljR5mA3kxulkRJE5Y9CBdsvy9GvJB2MSyZb5AIDVxBhe9M+MPDt/rvbjRBE+ad27bsZ5xMCQpt+/gTGbK9ARdOG69nLFPlgAg6vVhk7lIBt68kP8v+LvTydG1J3I7VICFJLLnxt33F29fP4m2r5rcdV4U0HWPHGGDwWxZhRB5jsQv6MOp4RUV6rxT5hdleONhpKNUqQ3j5OWMQfa63gilAXsOoBxXi0Vo9QzX8iefadz1tuOgoHB0MnxudMZKtk4C/lPH3QlMPGCdJe5OOIcC0Bo4ZyUpVuBvAMEVao6lMMrHAIK02W8B2s/aA+RzfmMWGW8cyIjFU+48SumfTLwdpvL/GODuP34iD62LF3iDWQTvtC3s+hIIHdp8U2pYKMotOGs0xd1FJzvNa1mOYQDmNgcr33ROpmX7nElmDLlnhCNS39sjCdUjq1VJnPqpJt6kvjqxLPwApTY8q97uAxm7+NM0GYbTp3FXOwmnKOl8PN9RIpmCZIgHdvggjGpUQw9gu6znZwUevq0e/i0jAXtSYX+eMV4PBaAc9xxn+U+rxw6oe3XKCWsO9gfz2jX5Csy3cC+Jwp53rtqHV7tZQHxgofWNnt4NG+Jc3qthfhy1NL2HalTiKFSAhSA6HPj8DpESw2vATCHO+LuKnej8CkEu/FPg6rkSK6OzH9g8941CvQ3nXfCaGAaYI0LQWNWrHoOzxjwq8HKjhZWw25lggDLg8KcRpMbL5DOOuBHKk0POLH1BxkqAYnl/hDPmMegCPFjgkF1XxS7Z94M0nVTV//1C6JqaGTKshpfMFD4p7POL6rQDdKZCUyxggyZQFvV2nBS5JGo5KpDXMeq37FVH31VcyYRYQvRtDecvj4hjeT1ERW+2kGQXqdCn7JOdjwHK/taD0FxpLq/swCNcGufuG/YLqkdr3mN/p4MDrKBdLPGDNEQ8YIoj7tW7wT1KEYto8qdAnG6eUC3dpIJ5tJkF4/VQEgEK4k4CON+J5IXTVHAq5d6+B8kwU8VV+NEUQZy7i8lIADEgliA06peQYBF3p5UhncG37iIEiv01mXz6wdutQusdxwx80beJgZHa0+br5/FqlEFsYfswQp8Tgwlke5SmEcgSEMBkvRhP/sbsOcXx5OfzXVdpSTdImP6tg+O7iECF9K2bH9nuphAk+Rghzc1ozio0YJooKTdfn86t+5kkAlWYaBTmKc7BXot6b9jPML0rcv2SJ/Sh3IJAQH/xL7MHAHMxb5Fdzx4BH092Y6apwgyvnaxtUlIGSb2RkTbfXWMu/M0V0m7A1kIykE6fVNXR2OogZ7aPwYbzPhLjAWjV6Lu8PsvYRuu59iJARZP95VBwA3w1j4+AwAtTat/u5EBMdUB0zZYeBvxLgQ2+F73iRSn/LInriHWAOSViWf+CtOrG4LqjNezU8+wXiVCbc7hI6XgXufzNHayAKgYThSggzkh8p0vmY09nIUYRjqLNRnGPh4XPOWWrqcH6wlXKC1+agBcn/RJBKk18cmpy/6EwO3kY+ObVuwLIlZWJpOkIHeq+DQWhv26SVM7e8ODbyDMlXGnX4rTm12wrUkE6QXOJUAjyq4ioBDZGDKpNQQlggdFUJH0k95qx4lgiADQTuuxO8b5WNf9YWpDc32NlaERqXsdHByV44ekIXVrFQaCLKeKC63O6pSViMpVBmrGOggoCOKRQ+z0dnQWmIJMlCn1fGJCmNPNZ8hYJ8acXQvDpW9PMW6eJC0SbrkBaud0r5Y954GEw4v5+g2SRtJlEkVQQacXKrbeYSnQNhEAjADF5XzdJ5ENiqZNBJEYaHmj2tHB5e0VOoj2cOY5xXobJlw8qRSTxDd4QoxpnUWaEmcodD1GXXugzS7L1mXXxVf+WW86BXoo8320VR7qSeIOmNEhJIYkFZsH3cZs9QTpMg/BOFYMeaM3dI29+jtW+oJknVZHelW54vqPirzRTlP29UVjFgg7QQJ7o4TxDl/GTivnCf5sCxi/HXMp58gRb5PmiOXGT8vF+izOgBFIZt2gqhMk5u/B68SYUshPo97eYriPo6w+fBi6SeIy/+QpgNNwgRdhSrtBFF9yBT5FiLMkr563YQdlufoD1L5pMilmiDqrrNPeE4KZhIm6MOFINkSzwBDfC+GGaeVC3S1NFZJkUs1QbIlzkPVD5c+CZigDxuCrEu097pGVpLlXp500q1KoxqpXKoJkimySvY2W4JQUibow4Ugqh/ZIv8XKMh+WPdRGWvWErZp1nm3ug4JBdJNEJcfIGCSpK9JmaAPJ4K0F/loh/BTCf6BDOMrXoFuEMsnQDDtBFFXYTcV4mg0JaWwzQHFhsMkXXVs/BLeom0N1AUmaR6qe7w8TW0Eu2brppYgQbnlCn4nBSwpE/Th9AVRfdHMQ1Dp3gRbLT+U3pTGLW651BIk4/JMAhaIAUzIBH24EaSWbf4H4jgAR3l5mq8hH6toagmSdflKAKdJ0EvSBH24ESS4lsB4VXrhTSVcMJ27SvIOhJVJL0GK3Cm9887A3eU8GU+JGhZ07dO8wAHVJdL7wrYXtV7WZVUxS5SYTqVQqq1mqXokiX/SSxCX1ThWlNuJGReWC6SyrSTiCcpIM56WOqNeKoeQizKRhNSXgeQyRT6VCFdJbSRpPljP51QSRPcFS1JAahVzu3RrDqocXUQ4qbdKVb3ANvP/40v8kTbGi9I2mfGzcoGOlsrHKZdKgmSLfAQI8olegiboGZfV1VOV9TzUw4xvlQt0RijlCJWyLqucyHtImmDGG+WnsRXmkqoRk+gnlQTJuHy1tPxYkiboOgsLQ701zLj1FQdHJiU1jvI14/K5Kj2r9G1nwoHlHN0rlY9LLp0EKXIXESZKQEvKDnrG5S8TYCwtPwMPrenG1EeOpDckOEQtM2kR78oV6GShvN7L0wlR+9Wo/XQSxOVU7aCrC0bVBBN3RpAw75luwoFJOUaeLfILIEjTNb3m5WmbRl/gqPVTR5D2Iu9SXdF5UgpM3BP09kU8lipBQm/pkRhp1wI5Bl5xGAd0FmiVlmIEwtkiXwbCWVLTvo/xQ9VylNqJUi51BMmU+Chi3CwGJcYJenBfBXi4Wkk30l/KoDwDYbqXo1+IcYlAMFPkvYmgU/L7Ki9Pp0fgijGTqSNItsjfAeHrEgTinKBP6eCtK2uxQmPIIenSoDK1qsHHlgv044YMNaiccfl/xQn+UpDxJH0EcVlV0RVdvIlrB31ciTcdxfBqye0afOW01S/38iQe5mhbr6OQcVmVUzhZbLcFu3gzSLxpKrZrSDB9BCnyanGSuJh20HUuEhmK4wZmmLGgXKAjorBdz2a7SlUKlOvJ9f4/7jliPT9TRZAg8zhDJWkQPT7h0K4c3S4SNiSUdVmdbP1KKHOMs9lB2QHWso9fNDJ3YaCrjfAFUzXmdfqTLfIrUt/Jx/6dM+l+HfvNlE0VQXQvGjmED+uWaG4E/EyRZxPhijA2+u+QT17MO/g9uEfVUwljT+kw8CS14qBmJ8rLFvlaEL5a12/GGozGB7zDSPyjV9emYYFUEaQ2tv+HJFEAA8+X8/Qxw3gNai7r8rRaBnNtTFWNjHKeDu9vfMItvFVLK+4iYFwD/XiJGFObuQw8scTbtvh4HoTNhvSbcZ1XoK810LfIVbWDGblHdRoQn2VifMMrkKoPHvmjO+7u65DaES/nab+hnMwUeTERNiKQRsfe8hnTuwq0VEOnIdGsy0cC+NlgRpixss3B5DiGgDodSx1Bahd0lhHwyUE7yvitV6DddIAIK6s2LonwCAFbhLDxTE8PxkkKU2Zdvg7ASSHa+H8VwrFejv6zIRsayrW8yep4zXv7qc1vJXw16eRQPqeOIMppNVnv9nEtEY7qHy9m/I7aMKUZ4+5sif8JfrARKD1esd5dtQNOPvbxZtIL0neukTlOn4Yv8Qo0R9qmCbn2Ih9IhD0YeMEZhaVJnnP0728qCdLbiUkuj2dganXsvzuA/1GlvbwcqdttkT+qVsa7o7CMCNo5Z2sXoNo7c7RC19H2Es9yGLfo6m0wrEvRfYxG+mlCN9UEMQFAKBtz2cnuEqww7R/wfYARAAAC00lEQVRCv8KMQ8oF+nkI3UBFzXlIHX4MN6zrbbYMwue9HL0V1o+RoGcJEiLKmSLfRIRjQqjCB77Ulaebwuj21Zm4iHdv6cFSEMKXc2Cswmhk0zTkaRQ3XX1LEE3EMkU+jwgXaKqtEzdcjkzVbPQZapOtkb2SUjlP+VD9GQFKliAaQdZOtdnHdlTHP2qnC+6SZhUZqLtEyHbmSHw8RAOy1ItagghDmC3xBDDUQUntRx37KOcpo62ooZB1eRGA6Roq60WTes89TF9M61iCCBHNuqxOnGoPZZjxVJuDcc1Y89e5CtC32wzcXs6TKEu7EK5hI2YJIgildqHQmk11H6WHsHczr8RmXVbZJlXWSfHDwHfLeRLdsREbHSaCliCCQOpm7Fg3Hw9u+Y33cvS4oAmjIpNcns6AGnKJnqSfqBV1IiIhSxABsGGOeRAwtTNPaq8kliezkCeCgkQRQxbaVCmEygXKxeJkChq1BBEEKVPkE4jwfYFoIGJqr0Pa3mBy2UW8M3qCeyUDHoVRc4+1hGPSVvWpUVx09C1BBGjpJCNIWh7gfefzlpu24XsA1Ona4FEniB0f5yb5opIgLE0RsQQRwpxx+XYCDhlKPMk5ZwOitOATYLzgzaJXhd0e8WKWIMJXIDicOBoLByUJw/UKVBCas2IpQcASRDNQ2SIfD4KqET6BCd0Anqred/hOOU8LNU1Z8RQgYAmSgiBZF+NDwBIkPuxtyylAwBIkBUGyLsaHgCVIfNjbllOAgCVICoJkXYwPAUuQ+LC3LacAAUuQFATJuhgfApYg8WFvW04BApYgKQiSdTE+BCxB4sPetpwCBCxBUhAk62J8CFiCxIe9bTkFCFiCpCBI1sX4ELAEiQ9723IKELAESUGQrIvxIWAJEh/2tuUUIGAJkoIgWRfjQ8ASJD7sbcspQMASJAVBsi7Gh4AlSHzY25ZTgIAlSAqCZF2MD4H/A2IWE4zvcqcJAAAAAElFTkSuQmCC;" vertex="1" parent="1">
          <mxGeometry x="1880.7499999999995" y="567.87" width="42.51" height="42.51" as="geometry" />
        </mxCell>
        <mxCell id="YOt-EDq2CFGh9Q1SYODQ-104" value="" style="shape=image;verticalLabelPosition=bottom;labelBackgroundColor=default;verticalAlign=top;aspect=fixed;imageAspect=0;image=data:image/png,iVBORw0KGgoAAAANSUhEUgAAAMgAAADICAYAAACtWK6eAAAAAXNSR0IArs4c6QAAIABJREFUeF7tXXmAHGWV/72amQTCoQjIeiCiuwIiSEBgQ5LpTsIRVCSQ2N0Jxy4rgoCiHOEyQLgDAoqgArqoGJKuJhk2XEo4pnpCBJQE4solrIDHCgIqZ0Jmut72V+nJTiYz0++r/qqrauarf+aPee997/u9+nV953sE+1gELAKDIkAWG4uARWBwBCxB7NthERgCAUsQ+3pYBCxB7DtgEQiHgP2ChMPNao0QBCxBRkigbTfDIWAJEg43qzVCELAEGSGBtt0Mh4AlSDjcrNYIQcASZIQE2nYzHAKWIOFws1ojBAFLkBESaNvNcAhYgoTDzWqNEAQsQUZIoG03wyFgCRION6s1QhCwBBkhgbbdDIeAJUg43KzWCEHAEmSEBNp2MxwCliDhcLNaIwQBS5AREmjbzXAIWIJo4pYt8lcBTANhCjPeAOFpAMW3xuCGFYfQO5rmrHjCEbAEEQbowJt5s7WjsRjAQYOoPNdSwYT7Z9HLQpNWLAUIWIIIg5Qp8veJcEId8cdHvYsJS4+mt4VmmyY2eTHv4PfgYAAtIKzycvRg0xpPcUOWIILgTVzEu7dUsEogqkTu8fI0VSgbudj4JbxF62pcR4SjN2iMUVzdg+MfOZLeiNyJFDdgCSIIXsblUwi4WiC6ToTxI69AXxbLRyQ4aRHv6ldwNwEfGagJZjxVqWD8g0fQ3yNyIfVmLUEEIcwU+QYiHCcQXS/CwDfLebpUR8ekbHuJJzs+bgdhs6HsMlAq5ylvsu3hZMsSRBDNrMtzqmP3iwSiG4owjvQKdIu2XoMK7UU+2iH8VMPMAV6e7tOQHzGiliCCULe7nHMAVyC64TCf0Q3GlPJMWqarG1Y+6/Lc6iDvfB19Bq4t5+lkHZ2RImsJIoj0XnfwmM3fwcME7CYQ70+SN5xW7Nc5g57Q1dWVzxT5pxtNxiVGGEu8Ak2TiI40GUsQYcSzC/mjcPAogK2FKv8/H2H8sdXH3lHtkWRLvDkzlhAwWde3mvzFXp7ODak7rNUsQTTC276Ixzo9WFZv4juQSQb++60x+FfTu+3jF/IHWx3cS8AnNbrSl7w+t2Lnrhn0bBj94a5jCaIZ4UkLeQo7uCfYcNN/7vOequ7EzyVfX3VjjfYS7+b4uBeE7cLaY+Cmcp6+FFZ/uOtZgoSIcLbEX1J7HSFUYeqFzJT4AGJ0ANg8jB+BDmNVq4PMfTl6PbSNYa5oCRIywNkiXwzCN8OoM3BeOU/6y8a1xjIlPooYPw75Fet1uQzC570cvRWmDyNFJ7UEmXALb9XaipPBmAhCKxgvAXgYq3G9dwytaUYAM0W+mQhHhWzrKC9P83V1My5fSsDZunr95H/q5enfG7QxItRTSZDaRtg1AN67UZQYL1YcfHZZjp5sRgSzLt8LYP8wbfmEKV05ekCqm3F5AQEzpfIDyTFwUTlP5zViQ0d3Yon3cRjTwNgDwAuOg7s6c3SXjo04ZVNHkHaX2x2gXAe011rasNP9h9NrUYO773zectNWLAfhU7ptqfskBIz3CvTboXT3L/F7ehhLAGR029hAnnCMl6OfNGRDqDyuxJuO8vEjIszqr8KMP5KDL3g5elxoLjax1BEk4/IvCRhXFzHGNV6BvlFXzoDA5BJ/yGc8AuBDIcz9udKKvZdNp78MpNu+kLd3CEtB2DmE7V6Vt3zG9K4CLW3AhpZqxuX7h9qXYeBvzJjQVaCntAw3WThVBJnSwVtXuvGqBCNm/L1coPdJZE3ITCzxJx0fDxFhS117zPgNORjff8Ks9l2ogl8Q8H5dm33kX6q04KBlM+g3DdjQUhV+5ZXNxV6eZmgZb7JwqghS+6X+kxijFuzizSB1JbYpT3CClnF/mMaYsbRcoPW3FTNFPpiAW8NsSq5vn/G0zziwayb9MYxPYXUyRV5MhMMl+g7hww/k6M8S2ThkUkWQ2rVX8bKkTziiK0cLmgls1uUjAfwsVJuMO0FYAcYaEC4LZaNXieG1OpjW7D0ONfcY7eNvIGwi8t/HJG8meSLZGIRSRRCFT8blvxKwrQQrBr5dztOpElmTMhmXzyYgtrsgYNziFUgRtelPpsSH1TYwZW0zDvEKdKdMuPlS6SNIke8mCu5W130Y6CrnqbGVn7qtDCyQLfIPQTg2pHpoNQYuLecp1AZm6Eb7KGZdVl9PMTmJsHNnjp4x0XYUNlJHEJ0dbAZWl/M0Jgrg6tqcy052l+DMVqg9krr2+wkwQ53vOrZcILXDHs8zl53MLvgHAVuIHGC86BXooyLZmIRSRxDdT7jP+GRcS4nBPZK3sYwIe0YZXwbeIcJ0L0e/iLKderazJZ4Kxs/ryfX+nxlXlwt0mlQ+DrnUEWR8iT/SxnhRA6xQRzo07A8pGixNr8UKEHYwZbOvHQZecRgHdBZImnUlCjcCmxmXbyRAnKyCgAmdeVoemUMGDKeOIKrPWZf/AeA9wv5/x8vTKULZSMQmF/njFeDXRNjKcAPPdBMOXJ6jPxi2G8pcxuXXCJDuPb3m5WmbUA01USmtBFFDicEyHG4AHzOWlQvU3kRMB2xq0kLe13fQVV3dGmXCFwYeWtONqUnJa6WxOdjb/Ru8PH3FBBZR2kglQTIuX0LAORJgYp2o93Mw6/I0BjoIaAh3Ztz6ioMjn8zRWgkGzZDJuHwNAeLEDz7joGYefQmLQUOBCttoo3rtRT7coSBPruiJc6Le38FMkU8lwlUixwcWutzL01kN6EeimnVZnSX7J4lxdUiz/HR1uGnoZqWkzbAyqSRILc/sCxqdjnWiPgBJ9BPRMXwinOTl6XqNfjdFNFPkvYnwK43G5nt5CnuPRqOZxkVTSRDV7bRN1PuGqpYh5Xlx+NTREweHxb2MO5i/2SJfBoL4q1Y7WayuCyf+SS1BMkW+hwgHShBOykS911ddgpCP/TtnUqhDkBJ8GpXJFvk5ED4ussNY8+Zm2Np0dhdR2yGEUksQnV+tJE3Ug6/fuhxb8i+Ijx29maQzpAzxKoRTUQmyuYIhL3z1tczAbeU8iU76hvPIrFZ6CVLiGWDcKoUjSRP14USQjMvnEnChNA5MOLqco3CnnaWNGJRLLUHaS7yjw/i9BhaJmagPJ4JkXX4MCO6bS55K9ybYavmh9KZEOAkyqSVImifqw4Ugusd+GLi3nCfRvDEJ5FA+pJ0g4owiSZqoDxeCZF1WBw2v1HiZT0jiMvVQ/qedIPMAnCkJUJIm6sOFIJkiLyfCfkL8eS1hm4dy9DeJfFJkUk2QTJG/SISSFMykTNSHA0GmLODtelrwF+mxGWb8slyg8dJYJUUu1QSZsIg/1lrB/2iAmYiJuvZJgAQu82aKfAIRvq+B/elenho5YqPRlDnRVBMkrRP14UAQ3YyS3YQdknIsX4c+6SdIke8DYYqk00mZqKedIKpgDxjqTo6sBARjlVcg6VKwJJRNk0k9QTIuX07AGRLEkjJRTz1BXP43AOIUpsw4v1wg8WaiJJbNkkk9QXQLbCZhop52gmRcVuXeviB9SX3C7l05+m+pfJLkUk8QdZ3VJzynAWrsE/U0EyT7Y96Ex+B18c3IFGQuGbb7IKpjwUpWD56QZvKLK5lc3yBkF/OH0QN5OtCErGJNKvFe7GOuKryj8YOUyAteUv9T9QVRCaJbfIwFYQ8G9iJg7IA1Qobu/TNoxf7edJLn+JWiKZQLMrY7kCdaiJkgExfzB5xuzAtTYpqAGZ15Et/+FELYNLFEEiTbya30Mnb1gT0J2BOEsUEBFsJmJpBRk3UCrnhzDK6I415CWoZYB9/No1e/gdNrl6FC10IMstcTOqpzkY60zUViJ4ga09Im+DQ7GMu9hEBQjGa0CTLUsfGnaqLos7wC3dKEttY3oXvIDzF8QYJTCsAVIJjOfPicSlzh+OjonEmqpkqin6YSZPwS3qJlDcY6jD0ZGFv7OuwiXk+PCkrGIxXgxGUFWhlVE33tJpkgExfx7i2VYIe8GcdC/gzGbUzoeD+h69YcVZqBv04bkRFEpd3c4h3sB8Zngi+DGiYB/6zjXAyy8yutOGOwak+m/EniHESdrao4mAdCLMU9VcGjaorW24lwa5JqGBoniBoyYVOc1ui41dTLqG2H8XZ1RWwe3sGVUVXLTdIXpDbPOIUJ54iTTmuDqqfAwJvEuFvNWTZ5F3ctPZre1rNgTto8QVxW12ATXVZLAh8DfyDCGV6OXIm8jkxSCKLyixHhSgJ21PG/qbKMNUy4V03ye7qx5MEj6O/NbN8oQdqLfKBDQcr/4fOo+UkrjjNZ4y9uggTL5YwbmzTPMPku9IBRDrJTOujwcvSSSeMD2TJKEJ1UPFF3zLh9xk/g4GwTQYlrDjKxxNu2+Lg0jsI+xuMBQN0xqW4BLCHCzSbiEilBgrnHGKyOAoik2FR1OABcXM5TQ/UD4yCISnlafafOD1OFNyn4D+rHupqO1496F3NMz1eMfUHGL+QPtjmIpVqpqq5EwO8YUMu0K4ixsnsMVrSuxlFEQUqarU0GmYHnHWB22B3iZg6xVMJsMK4UJ3aTA/V6dXn+opYK5vc4+CwIqjbhAdIjP/Jm5JLqi0IODupfTltuYWNJYwRRprMud1d/YVsbcUigWwHjqYAMhBVEWDlqDR4b7Jdj/xK/p8fHBSCcFIFvyyuE45bl6EmB3+tFmvEFqc0z1H6G6RqNaq/iR6hgjjeLNqhZr6oQd4/GVAamAcF5rffq4GJC1nSNRrMEKXIRhLyJjvax8TgzHqser17JDlbQ23gszPLrhCJ/ooVwHQEHGPYPYPyo4uCcZTl6RWI7ysOK2QW8DRyoXLnmC4gyVLnmr3kFEmVSzLq8f/WYiVopU0fjPyTBplEZtfpYzpOxal5GCaJewlZC+IqljEeZamRgrCgX6NeNAtZff1KJP+f7uJoInzBpW6X0r6ZRuqBcoKvr2Y2KILXSCudpVN+q52rwf2b83gFO7SzQEpHCAEKqgBBT8GWZBsLOYe1I9Lw8GXuvjRnqdTzj8iRi3FH3YCHjETVMUl+GCrCyWcc8+vh5cjUjxwWmhwGSl8k0QRTp2cc1pucZOqSXvLi9MpNKvJOvviyMQ0HYV0dXIptogqgOqPGvw/gGGBkQtg+GR4oMhJXk47EkFJxUfgYFNrtxMQDjpcAY6CTGyQMNR0wRpDbPuCaSUtOMn1QcnCEdNkpe3IFk1OJO67ovy6HSbP1DtsV4wiuQOuxq5DH+BTHiVZONRDmhZcaNax3M6ZswrdFJ+rgSv28U4yICjo/goOfySgtONLkxKg1nbUHl81hHmKnVrI3aR+wZOLWcp29L26wnZwnSB6Gojl4EQxXC3N7ANfIFybh8ChhzTe9nRHm0pt5LONj/My4fUhuGKcLUXapnxh/XOtjpoRwZ24+zBBkgOlFtqjHjWcfBKdyCVbpXbqkFu0ayuGBo8zMsCaR6tSq6h4GDSf5Gd1QY+KtPmKS75F6vfUuQQRBSxzIcxjwC/qMeiLr/VyWcCRgn1mM8EsVklhk/JgfnRHVMQ9w/TcFsifcAYwoYExnB6etHR7+LG03voiu3LEHqBKfJF4g0X5XQ4rHNM0J7HJOiJYgQ+AivoAo9MCDGeNEnnNGVJ3HCbwOtptqEJYhG+NYnMQDOrrvPo2E3clF1CQy4DKtxVZhTCJH7l+AGLEFCBKc3DQ4IR0nT/4dopmEVVodgGD/z23BW1NeIG3Y2oQYsQRoIzMQi79kCfD+KCXQDbq1TbXIiiob9TagBSxADgWkv8SyHcXn1lOuHDZhryITaCwDhzHKeFjZkyCoHCFiCGHoRahfGzqpeqjqDgE0NmRWbCS5zMS6n1bjCzjPEsNUVtASpC5GegNol5x5cQcBMPc1w0mqeQYwFlTbMtvOMcBgOpWUJYh7TwOLEEu/TwkECtr0iakKZXVFhHNfsk9AR9idxpi1BogwJM2VLOJqBywj4gMGm1NXms7wcbgERG7RrTfVDwBKkCa+Euor67mh8kwCVOCF0zmGVdBuMb721GS6PI+l2E6BKXBOWIE0MSS2ru6r0Ol27WUYRbZgdZ9kGbZ+HgYIlSBOD2CBBXKcNZz4wnV5sossjvilLkCa8AiqrfesazCHg640MsaqlGlQazm+PfheXRHFytQlQpK4JS5AoQzaXnezO+DITLiTg/caaYrwMYI73NG7CXPKN2bWGNkLAEiSil6K9xJMdH98FYdeImlDHSZ7wCSd25akrsjZGuGFLEMMvQPsi/henB1drFrpsyItq/ZXbuQWnd82gZxsyZJXtFySqd6A3g2P16ueJRGiLqp3B7DKjG4Tr2ggX3JcjlRbUPgYQsF+QBkFUBUf5ZZygkjIQ8L4GzZlQf00lddjWwQ+SWNLMRAebacMSpAG0awnbVGLoSDMFhnKR8bRPOK0rT3eH0rdKAQKWICFeBJUZkH18D4QpIdSbq8K4nxyc1Jmj8Clhm+txolqzBNEIR5AYugUXAfhyBAnbNDzRFlUZ2X+ICs7tn5Fd29IIU7AEEQR8rxu4bYv3Bpt8c0wnhhY0b1LkdWZc8tbr+M6K40mVqrBPHQQsQeoAlCnxYeTjW6YTQ8f5ZqoE29V8UrO7CtQRpx9paNsSZJAoTSryp5mgEkObLkCjWnwQwASNF+RhAP+qIS8VLRPj60lJJi5xunYhTWWGn6y+5gz8r0qK/uYY/CCKE86WIP2isl8Hv79tLeYR4RhJwDRlnmHC16iCZ+HgebGujx19wiccwncB7CTWEwqqDIt+G76Z1BuJ7SXezWEcWivGM3agbqnUo04LJnfOoCeE3RaJWYLUYFJ3ynkMTlHzDALGiNCTC70WnJ3K0/VKJbuQP6pLEG8mvRDouqxKNaiSDXWTOcvdU6dWggKsl9E7+FYS7rRPcnm8r+qHANOrVWw/JumLSljR5mA3kxulkRJE5Y9CBdsvy9GvJB2MSyZb5AIDVxBhe9M+MPDt/rvbjRBE+ad27bsZ5xMCQpt+/gTGbK9ARdOG69nLFPlgAg6vVhk7lIBt68kP8v+LvTydG1J3I7VICFJLLnxt33F29fP4m2r5rcdV4U0HWPHGGDwWxZhRB5jsQv6MOp4RUV6rxT5hdleONhpKNUqQ3j5OWMQfa63gilAXsOoBxXi0Vo9QzX8iefadz1tuOgoHB0MnxudMZKtk4C/lPH3QlMPGCdJe5OOIcC0Bo4ZyUpVuBvAMEVao6lMMrHAIK02W8B2s/aA+RzfmMWGW8cyIjFU+48SumfTLwdpvL/GODuP34iD62LF3iDWQTvtC3s+hIIHdp8U2pYKMotOGs0xd1FJzvNa1mOYQDmNgcr33ROpmX7nElmDLlnhCNS39sjCdUjq1VJnPqpJt6kvjqxLPwApTY8q97uAxm7+NM0GYbTp3FXOwmnKOl8PN9RIpmCZIgHdvggjGpUQw9gu6znZwUevq0e/i0jAXtSYX+eMV4PBaAc9xxn+U+rxw6oe3XKCWsO9gfz2jX5Csy3cC+Jwp53rtqHV7tZQHxgofWNnt4NG+Jc3qthfhy1NL2HalTiKFSAhSA6HPj8DpESw2vATCHO+LuKnej8CkEu/FPg6rkSK6OzH9g8941CvQ3nXfCaGAaYI0LQWNWrHoOzxjwq8HKjhZWw25lggDLg8KcRpMbL5DOOuBHKk0POLH1BxkqAYnl/hDPmMegCPFjgkF1XxS7Z94M0nVTV//1C6JqaGTKshpfMFD4p7POL6rQDdKZCUyxggyZQFvV2nBS5JGo5KpDXMeq37FVH31VcyYRYQvRtDecvj4hjeT1ERW+2kGQXqdCn7JOdjwHK/taD0FxpLq/swCNcGufuG/YLqkdr3mN/p4MDrKBdLPGDNEQ8YIoj7tW7wT1KEYto8qdAnG6eUC3dpIJ5tJkF4/VQEgEK4k4CON+J5IXTVHAq5d6+B8kwU8VV+NEUQZy7i8lIADEgliA06peQYBF3p5UhncG37iIEiv01mXz6wdutQusdxwx80beJgZHa0+br5/FqlEFsYfswQp8Tgwlke5SmEcgSEMBkvRhP/sbsOcXx5OfzXVdpSTdImP6tg+O7iECF9K2bH9nuphAk+Rghzc1ozio0YJooKTdfn86t+5kkAlWYaBTmKc7BXot6b9jPML0rcv2SJ/Sh3IJAQH/xL7MHAHMxb5Fdzx4BH092Y6apwgyvnaxtUlIGSb2RkTbfXWMu/M0V0m7A1kIykE6fVNXR2OogZ7aPwYbzPhLjAWjV6Lu8PsvYRuu59iJARZP95VBwA3w1j4+AwAtTat/u5EBMdUB0zZYeBvxLgQ2+F73iRSn/LInriHWAOSViWf+CtOrG4LqjNezU8+wXiVCbc7hI6XgXufzNHayAKgYThSggzkh8p0vmY09nIUYRjqLNRnGPh4XPOWWrqcH6wlXKC1+agBcn/RJBKk18cmpy/6EwO3kY+ObVuwLIlZWJpOkIHeq+DQWhv26SVM7e8ODbyDMlXGnX4rTm12wrUkE6QXOJUAjyq4ioBDZGDKpNQQlggdFUJH0k95qx4lgiADQTuuxO8b5WNf9YWpDc32NlaERqXsdHByV44ekIXVrFQaCLKeKC63O6pSViMpVBmrGOggoCOKRQ+z0dnQWmIJMlCn1fGJCmNPNZ8hYJ8acXQvDpW9PMW6eJC0SbrkBaud0r5Y954GEw4v5+g2SRtJlEkVQQacXKrbeYSnQNhEAjADF5XzdJ5ENiqZNBJEYaHmj2tHB5e0VOoj2cOY5xXobJlw8qRSTxDd4QoxpnUWaEmcodD1GXXugzS7L1mXXxVf+WW86BXoo8320VR7qSeIOmNEhJIYkFZsH3cZs9QTpMg/BOFYMeaM3dI29+jtW+oJknVZHelW54vqPirzRTlP29UVjFgg7QQJ7o4TxDl/GTivnCf5sCxi/HXMp58gRb5PmiOXGT8vF+izOgBFIZt2gqhMk5u/B68SYUshPo97eYriPo6w+fBi6SeIy/+QpgNNwgRdhSrtBFF9yBT5FiLMkr563YQdlufoD1L5pMilmiDqrrNPeE4KZhIm6MOFINkSzwBDfC+GGaeVC3S1NFZJkUs1QbIlzkPVD5c+CZigDxuCrEu097pGVpLlXp500q1KoxqpXKoJkimySvY2W4JQUibow4Ugqh/ZIv8XKMh+WPdRGWvWErZp1nm3ug4JBdJNEJcfIGCSpK9JmaAPJ4K0F/loh/BTCf6BDOMrXoFuEMsnQDDtBFFXYTcV4mg0JaWwzQHFhsMkXXVs/BLeom0N1AUmaR6qe7w8TW0Eu2brppYgQbnlCn4nBSwpE/Th9AVRfdHMQ1Dp3gRbLT+U3pTGLW651BIk4/JMAhaIAUzIBH24EaSWbf4H4jgAR3l5mq8hH6toagmSdflKAKdJ0EvSBH24ESS4lsB4VXrhTSVcMJ27SvIOhJVJL0GK3Cm9887A3eU8GU+JGhZ07dO8wAHVJdL7wrYXtV7WZVUxS5SYTqVQqq1mqXokiX/SSxCX1ThWlNuJGReWC6SyrSTiCcpIM56WOqNeKoeQizKRhNSXgeQyRT6VCFdJbSRpPljP51QSRPcFS1JAahVzu3RrDqocXUQ4qbdKVb3ANvP/40v8kTbGi9I2mfGzcoGOlsrHKZdKgmSLfAQI8olegiboGZfV1VOV9TzUw4xvlQt0RijlCJWyLqucyHtImmDGG+WnsRXmkqoRk+gnlQTJuHy1tPxYkiboOgsLQ701zLj1FQdHJiU1jvI14/K5Kj2r9G1nwoHlHN0rlY9LLp0EKXIXESZKQEvKDnrG5S8TYCwtPwMPrenG1EeOpDckOEQtM2kR78oV6GShvN7L0wlR+9Wo/XQSxOVU7aCrC0bVBBN3RpAw75luwoFJOUaeLfILIEjTNb3m5WmbRl/gqPVTR5D2Iu9SXdF5UgpM3BP09kU8lipBQm/pkRhp1wI5Bl5xGAd0FmiVlmIEwtkiXwbCWVLTvo/xQ9VylNqJUi51BMmU+Chi3CwGJcYJenBfBXi4Wkk30l/KoDwDYbqXo1+IcYlAMFPkvYmgU/L7Ki9Pp0fgijGTqSNItsjfAeHrEgTinKBP6eCtK2uxQmPIIenSoDK1qsHHlgv044YMNaiccfl/xQn+UpDxJH0EcVlV0RVdvIlrB31ciTcdxfBqye0afOW01S/38iQe5mhbr6OQcVmVUzhZbLcFu3gzSLxpKrZrSDB9BCnyanGSuJh20HUuEhmK4wZmmLGgXKAjorBdz2a7SlUKlOvJ9f4/7jliPT9TRZAg8zhDJWkQPT7h0K4c3S4SNiSUdVmdbP1KKHOMs9lB2QHWso9fNDJ3YaCrjfAFUzXmdfqTLfIrUt/Jx/6dM+l+HfvNlE0VQXQvGjmED+uWaG4E/EyRZxPhijA2+u+QT17MO/g9uEfVUwljT+kw8CS14qBmJ8rLFvlaEL5a12/GGozGB7zDSPyjV9emYYFUEaQ2tv+HJFEAA8+X8/Qxw3gNai7r8rRaBnNtTFWNjHKeDu9vfMItvFVLK+4iYFwD/XiJGFObuQw8scTbtvh4HoTNhvSbcZ1XoK810LfIVbWDGblHdRoQn2VifMMrkKoPHvmjO+7u65DaES/nab+hnMwUeTERNiKQRsfe8hnTuwq0VEOnIdGsy0cC+NlgRpixss3B5DiGgDodSx1Bahd0lhHwyUE7yvitV6DddIAIK6s2LonwCAFbhLDxTE8PxkkKU2Zdvg7ASSHa+H8VwrFejv6zIRsayrW8yep4zXv7qc1vJXw16eRQPqeOIMppNVnv9nEtEY7qHy9m/I7aMKUZ4+5sif8JfrARKD1esd5dtQNOPvbxZtIL0neukTlOn4Yv8Qo0R9qmCbn2Ih9IhD0YeMEZhaVJnnP0728qCdLbiUkuj2dganXsvzuA/1GlvbwcqdttkT+qVsa7o7CMCNo5Z2sXoNo7c7RC19H2Es9yGLfo6m0wrEvRfYxG+mlCN9UEMQFAKBtz2cnuEqww7R/wfYARAAAC00lEQVRCv8KMQ8oF+nkI3UBFzXlIHX4MN6zrbbYMwue9HL0V1o+RoGcJEiLKmSLfRIRjQqjCB77Ulaebwuj21Zm4iHdv6cFSEMKXc2Cswmhk0zTkaRQ3XX1LEE3EMkU+jwgXaKqtEzdcjkzVbPQZapOtkb2SUjlP+VD9GQFKliAaQdZOtdnHdlTHP2qnC+6SZhUZqLtEyHbmSHw8RAOy1ItagghDmC3xBDDUQUntRx37KOcpo62ooZB1eRGA6Roq60WTes89TF9M61iCCBHNuqxOnGoPZZjxVJuDcc1Y89e5CtC32wzcXs6TKEu7EK5hI2YJIgildqHQmk11H6WHsHczr8RmXVbZJlXWSfHDwHfLeRLdsREbHSaCliCCQOpm7Fg3Hw9u+Y33cvS4oAmjIpNcns6AGnKJnqSfqBV1IiIhSxABsGGOeRAwtTNPaq8kliezkCeCgkQRQxbaVCmEygXKxeJkChq1BBEEKVPkE4jwfYFoIGJqr0Pa3mBy2UW8M3qCeyUDHoVRc4+1hGPSVvWpUVx09C1BBGjpJCNIWh7gfefzlpu24XsA1Ona4FEniB0f5yb5opIgLE0RsQQRwpxx+XYCDhlKPMk5ZwOitOATYLzgzaJXhd0e8WKWIMJXIDicOBoLByUJw/UKVBCas2IpQcASRDNQ2SIfD4KqET6BCd0Anqred/hOOU8LNU1Z8RQgYAmSgiBZF+NDwBIkPuxtyylAwBIkBUGyLsaHgCVIfNjbllOAgCVICoJkXYwPAUuQ+LC3LacAAUuQFATJuhgfApYg8WFvW04BApYgKQiSdTE+BCxB4sPetpwCBCxBUhAk62J8CFiCxIe9bTkFCFiCpCBI1sX4ELAEiQ9723IKELAESUGQrIvxIWAJEh/2tuUUIGAJkoIgWRfjQ8ASJD7sbcspQMASJAVBsi7Gh4AlSHzY25ZTgIAlSAqCZF2MD4H/A2IWE4zvcqcJAAAAAElFTkSuQmCC;" vertex="1" parent="1">
          <mxGeometry x="1316.4299999999998" y="595.24" width="25.14" height="25.14" as="geometry" />
        </mxCell>
        <mxCell id="YOt-EDq2CFGh9Q1SYODQ-106" style="edgeStyle=orthogonalEdgeStyle;rounded=0;orthogonalLoop=1;jettySize=auto;html=1;movable=1;resizable=1;rotatable=1;deletable=1;editable=1;locked=0;connectable=1;endArrow=none;endFill=0;" edge="1" parent="1">
          <mxGeometry relative="1" as="geometry">
            <mxPoint x="2014.71" y="257" as="targetPoint" />
            <mxPoint x="1976" y="256.51" as="sourcePoint" />
          </mxGeometry>
        </mxCell>
        <mxCell id="YOt-EDq2CFGh9Q1SYODQ-107" style="edgeStyle=orthogonalEdgeStyle;rounded=0;orthogonalLoop=1;jettySize=auto;html=1;movable=1;resizable=1;rotatable=1;deletable=1;editable=1;locked=0;connectable=1;endArrow=none;endFill=0;" edge="1" parent="1">
          <mxGeometry relative="1" as="geometry">
            <mxPoint x="2015.71" y="561.3800000000001" as="targetPoint" />
            <mxPoint x="1977" y="560.8900000000001" as="sourcePoint" />
          </mxGeometry>
        </mxCell>
        <mxCell id="YOt-EDq2CFGh9Q1SYODQ-108" style="edgeStyle=orthogonalEdgeStyle;rounded=0;orthogonalLoop=1;jettySize=auto;html=1;movable=1;resizable=1;rotatable=1;deletable=1;editable=1;locked=0;connectable=1;" edge="1" parent="1">
          <mxGeometry relative="1" as="geometry">
            <mxPoint x="2047" y="383.38" as="targetPoint" />
            <mxPoint x="2014" y="256" as="sourcePoint" />
            <Array as="points">
              <mxPoint x="2047" y="256.42" />
            </Array>
          </mxGeometry>
        </mxCell>
        <mxCell id="YOt-EDq2CFGh9Q1SYODQ-109" style="edgeStyle=orthogonalEdgeStyle;rounded=0;orthogonalLoop=1;jettySize=auto;html=1;movable=1;resizable=1;rotatable=1;deletable=1;editable=1;locked=0;connectable=1;" edge="1" parent="1">
          <mxGeometry relative="1" as="geometry">
            <mxPoint x="2047" y="422" as="targetPoint" />
            <mxPoint x="2015" y="561" as="sourcePoint" />
          </mxGeometry>
        </mxCell>
        <mxCell id="YOt-EDq2CFGh9Q1SYODQ-110" value="Output:Intent" style="rounded=1;whiteSpace=wrap;html=1;fillColor=#e1d5e7;strokeColor=#9673a6;" vertex="1" parent="1">
          <mxGeometry x="1986" y="384" width="120" height="36" as="geometry" />
        </mxCell>
        <mxCell id="YOt-EDq2CFGh9Q1SYODQ-111" value="" style="endArrow=classic;html=1;rounded=0;" edge="1" parent="1">
          <mxGeometry width="50" height="50" relative="1" as="geometry">
            <mxPoint x="1217" y="388.75" as="sourcePoint" />
            <mxPoint x="1217" y="428.75" as="targetPoint" />
          </mxGeometry>
        </mxCell>
        <mxCell id="YOt-EDq2CFGh9Q1SYODQ-112" value="翻译" style="text;html=1;align=center;verticalAlign=middle;whiteSpace=wrap;rounded=0;" vertex="1" parent="1">
          <mxGeometry x="1224" y="391.75" width="33" height="30" as="geometry" />
        </mxCell>
        <mxCell id="YOt-EDq2CFGh9Q1SYODQ-113" value="&lt;font face=&quot;Times New Roman&quot;&gt;&lt;span style=&quot;font-size: 18px;&quot;&gt;用户&lt;/span&gt;&lt;/font&gt;&lt;div&gt;&lt;font face=&quot;Times New Roman&quot;&gt;&lt;span style=&quot;font-size: 18px;&quot;&gt;话语&lt;/span&gt;&lt;/font&gt;&lt;/div&gt;" style="rounded=1;whiteSpace=wrap;html=1;rotation=0;fillColor=#d5e8d4;strokeColor=#82b366;flipV=0;direction=south;arcSize=30;flipH=0;" vertex="1" parent="1">
          <mxGeometry x="1199" y="430.5" width="40" height="231.5" as="geometry" />
        </mxCell>
        <mxCell id="YOt-EDq2CFGh9Q1SYODQ-114" value="" style="endArrow=classic;html=1;rounded=0;" edge="1" parent="1">
          <mxGeometry width="50" height="50" relative="1" as="geometry">
            <mxPoint x="1652" y="382" as="sourcePoint" />
            <mxPoint x="1652" y="422" as="targetPoint" />
          </mxGeometry>
        </mxCell>
        <mxCell id="YOt-EDq2CFGh9Q1SYODQ-115" value="翻译" style="text;html=1;align=center;verticalAlign=middle;whiteSpace=wrap;rounded=0;" vertex="1" parent="1">
          <mxGeometry x="1659" y="385" width="33" height="30" as="geometry" />
        </mxCell>
        <mxCell id="YOt-EDq2CFGh9Q1SYODQ-116" style="edgeStyle=orthogonalEdgeStyle;rounded=0;orthogonalLoop=1;jettySize=auto;html=1;movable=1;resizable=1;rotatable=1;deletable=1;editable=1;locked=0;connectable=1;" edge="1" parent="1">
          <mxGeometry relative="1" as="geometry">
            <mxPoint x="1283.7000000000003" y="299.53999999999996" as="targetPoint" />
            <mxPoint x="1245" y="299.04999999999995" as="sourcePoint" />
          </mxGeometry>
        </mxCell>
        <mxCell id="YOt-EDq2CFGh9Q1SYODQ-117" style="edgeStyle=orthogonalEdgeStyle;rounded=0;orthogonalLoop=1;jettySize=auto;html=1;movable=1;resizable=1;rotatable=1;deletable=1;editable=1;locked=0;connectable=1;" edge="1" parent="1">
          <mxGeometry relative="1" as="geometry">
            <mxPoint x="1282.7000000000003" y="587.5" as="targetPoint" />
            <mxPoint x="1244" y="587.01" as="sourcePoint" />
          </mxGeometry>
        </mxCell>
        <mxCell id="YOt-EDq2CFGh9Q1SYODQ-119" style="edgeStyle=orthogonalEdgeStyle;rounded=0;orthogonalLoop=1;jettySize=auto;html=1;movable=1;resizable=1;rotatable=1;deletable=1;editable=1;locked=0;connectable=1;" edge="1" parent="1">
          <mxGeometry relative="1" as="geometry">
            <mxPoint x="1861" y="364.5" as="targetPoint" />
            <mxPoint x="1245" y="364.01" as="sourcePoint" />
          </mxGeometry>
        </mxCell>
        <mxCell id="YOt-EDq2CFGh9Q1SYODQ-120" style="edgeStyle=orthogonalEdgeStyle;rounded=0;orthogonalLoop=1;jettySize=auto;html=1;movable=1;resizable=1;rotatable=1;deletable=1;editable=1;locked=0;connectable=1;" edge="1" parent="1">
          <mxGeometry relative="1" as="geometry">
            <mxPoint x="1862.3" y="652.49" as="targetPoint" />
            <mxPoint x="1246.3" y="652" as="sourcePoint" />
          </mxGeometry>
        </mxCell>
      </root>
    </mxGraphModel>
  </diagram>
</mxfile>
